<svg width="33" height="32" viewBox="0 0 33 32" fill="none" xmlns="http://www.w3.org/2000/svg">
<path opacity="0.2" d="M28.6667 9.33333V22.6667C28.6667 26.6667 26.6667 29.3333 22 29.3333H11.3334C6.66669 29.3333 4.66669 26.6667 4.66669 22.6667V9.33333C4.66669 5.33333 6.66669 2.66666 11.3334 2.66666H22C26.6667 2.66666 28.6667 5.33333 28.6667 9.33333Z" fill="#090129"/>
<path d="M25.3334 12.3333H22.6667C20.64 12.3333 19 10.6933 19 8.66667V6C19 5.45333 19.4534 5 20 5C20.5467 5 21 5.45333 21 6V8.66667C21 9.58667 21.7467 10.3333 22.6667 10.3333H25.3334C25.88 10.3333 26.3334 10.7867 26.3334 11.3333C26.3334 11.88 25.88 12.3333 25.3334 12.3333Z" fill="#090129"/>
<path d="M16.6667 18.3333H11.3333C10.7867 18.3333 10.3333 17.88 10.3333 17.3333C10.3333 16.7867 10.7867 16.3333 11.3333 16.3333H16.6667C17.2133 16.3333 17.6667 16.7867 17.6667 17.3333C17.6667 17.88 17.2133 18.3333 16.6667 18.3333Z" fill="#090129"/>
<path d="M22 23.6667H11.3333C10.7867 23.6667 10.3333 23.2133 10.3333 22.6667C10.3333 22.12 10.7867 21.6667 11.3333 21.6667H22C22.5467 21.6667 23 22.12 23 22.6667C23 23.2133 22.5467 23.6667 22 23.6667Z" fill="#090129"/>
</svg>
