<svg width="390" height="72" viewBox="0 0 390 72" fill="none" xmlns="http://www.w3.org/2000/svg">
<path d="M34 33H50" stroke="white" stroke-width="1.5" stroke-linecap="round"/>
<path d="M34 39H50" stroke="white" stroke-width="1.5" stroke-linecap="round"/>
<path d="M284.175 48.9409V45.9142C284.175 45.5396 284.058 45.2328 283.822 44.9917C283.586 44.7506 283.292 44.631 282.94 44.631C282.587 44.631 282.293 44.7506 282.057 44.9917C281.821 45.2328 281.704 45.5396 281.704 45.9142V48.9409C281.704 49.1242 281.64 49.2796 281.509 49.4071C281.378 49.5366 281.221 49.6004 281.038 49.6004C280.852 49.6004 280.695 49.5366 280.566 49.4071C280.435 49.2776 280.371 49.1222 280.371 48.9409V44.1329C280.371 43.9496 280.435 43.7942 280.566 43.6667C280.697 43.5371 280.854 43.4734 281.038 43.4734C281.223 43.4734 281.38 43.5371 281.509 43.6667C281.64 43.7962 281.704 43.9516 281.704 44.1329V44.1708C282.15 43.7065 282.7 43.4734 283.355 43.4734C283.723 43.4734 284.07 43.5571 284.394 43.7225C284.717 43.8878 284.975 44.121 285.168 44.4198C285.722 43.7882 286.385 43.4734 287.159 43.4734C287.779 43.4734 288.295 43.6746 288.702 44.0771C289.109 44.4796 289.313 45.0136 289.313 45.6771V48.9409C289.313 49.1242 289.248 49.2796 289.117 49.4071C288.986 49.5366 288.829 49.6004 288.646 49.6004C288.46 49.6004 288.303 49.5366 288.174 49.4071C288.043 49.2776 287.979 49.1222 287.979 48.9409V45.9142C287.979 45.5396 287.862 45.2328 287.626 44.9917C287.39 44.7506 287.098 44.631 286.744 44.631C286.391 44.631 286.097 44.7506 285.861 44.9917C285.625 45.2328 285.509 45.5396 285.509 45.9142V48.9409C285.509 49.1242 285.444 49.2796 285.313 49.4071C285.182 49.5366 285.025 49.6004 284.842 49.6004C284.656 49.6004 284.499 49.5366 284.37 49.4071C284.239 49.2796 284.175 49.1242 284.175 48.9409Z" fill="white"/>
<path d="M291.63 48.7177C291.009 48.1279 290.697 47.4026 290.697 46.5379C290.697 45.6751 291.007 44.9479 291.63 44.3581C292.25 43.7683 293.016 43.4734 293.923 43.4734C294.829 43.4734 295.593 43.7683 296.216 44.3581C296.836 44.9479 297.149 45.6751 297.149 46.5379C297.149 47.4007 296.838 48.1279 296.216 48.7177C295.595 49.3075 294.829 49.6024 293.923 49.6024C293.016 49.6024 292.25 49.3075 291.63 48.7177ZM292.575 45.2188C292.214 45.5675 292.033 46.0079 292.033 46.5399C292.033 47.0719 292.214 47.5122 292.575 47.8609C292.935 48.2096 293.385 48.385 293.923 48.385C294.461 48.385 294.91 48.2096 295.271 47.8609C295.631 47.5122 295.813 47.0719 295.813 46.5399C295.813 46.0079 295.631 45.5675 295.271 45.2188C294.91 44.8702 294.461 44.6968 293.923 44.6968C293.385 44.6948 292.935 44.8702 292.575 45.2188Z" fill="white"/>
<path d="M302.397 48.9409V45.9142C302.397 45.5396 302.28 45.2328 302.045 44.9917C301.809 44.7506 301.515 44.631 301.162 44.631C300.81 44.631 300.515 44.7506 300.28 44.9917C300.044 45.2328 299.927 45.5396 299.927 45.9142V48.9409C299.927 49.1242 299.863 49.2796 299.732 49.4071C299.601 49.5366 299.443 49.6004 299.26 49.6004C299.075 49.6004 298.918 49.5366 298.789 49.4071C298.658 49.2776 298.593 49.1222 298.593 48.9409V44.1329C298.593 43.9496 298.658 43.7942 298.789 43.6667C298.92 43.5371 299.077 43.4734 299.26 43.4734C299.445 43.4734 299.603 43.5371 299.732 43.6667C299.863 43.7962 299.927 43.9516 299.927 44.1329V44.1708C300.372 43.7065 300.922 43.4734 301.577 43.4734C301.946 43.4734 302.292 43.5571 302.617 43.7225C302.939 43.8878 303.197 44.121 303.391 44.4198C303.945 43.7882 304.608 43.4734 305.381 43.4734C306.002 43.4734 306.518 43.6746 306.925 44.0771C307.332 44.4796 307.535 45.0136 307.535 45.6771V48.9409C307.535 49.1242 307.471 49.2796 307.34 49.4071C307.209 49.5366 307.052 49.6004 306.868 49.6004C306.683 49.6004 306.526 49.5366 306.397 49.4071C306.266 49.2776 306.201 49.1222 306.201 48.9409V45.9142C306.201 45.5396 306.085 45.2328 305.849 44.9917C305.613 44.7506 305.321 44.631 304.966 44.631C304.614 44.631 304.319 44.7506 304.084 44.9917C303.848 45.2328 303.731 45.5396 303.731 45.9142V48.9409C303.731 49.1242 303.667 49.2796 303.536 49.4071C303.405 49.5366 303.248 49.6004 303.064 49.6004C302.879 49.6004 302.722 49.5366 302.593 49.4071C302.464 49.2796 302.397 49.1242 302.397 48.9409Z" fill="white"/>
<path d="M311.013 43.6229H311.996C312.164 43.6229 312.309 43.6827 312.432 43.8042C312.552 43.9238 312.615 44.0672 312.615 44.2346C312.615 44.4 312.554 44.5434 312.432 44.665C312.311 44.7845 312.166 44.8463 311.996 44.8463H311.013V48.9409C311.013 49.1243 310.949 49.2797 310.818 49.4072C310.687 49.5367 310.529 49.6005 310.346 49.6005C310.161 49.6005 310.004 49.5367 309.875 49.4072C309.744 49.2777 309.679 49.1223 309.679 48.9409V44.8443H309.188C309.02 44.8443 308.875 44.7845 308.752 44.663C308.631 44.5434 308.569 44.4 308.569 44.2326C308.569 44.0672 308.629 43.9238 308.752 43.8022C308.873 43.6827 309.018 43.6209 309.188 43.6209H309.679V42.4872C309.679 42.3038 309.744 42.1484 309.875 42.0209C310.006 41.8914 310.163 41.8276 310.346 41.8276C310.531 41.8276 310.689 41.8914 310.818 42.0209C310.949 42.1504 311.013 42.3058 311.013 42.4872V43.6229Z" fill="white"/>
<path d="M318.468 44.4457V44.1349C318.468 43.9516 318.533 43.7962 318.664 43.6687C318.795 43.5391 318.952 43.4754 319.135 43.4754C319.32 43.4754 319.478 43.5391 319.607 43.6687C319.738 43.7982 319.802 43.9536 319.802 44.1349V48.9409C319.802 49.1242 319.738 49.2796 319.607 49.4071C319.476 49.5366 319.318 49.6004 319.135 49.6004C318.95 49.6004 318.793 49.5366 318.664 49.4071C318.533 49.2776 318.468 49.1222 318.468 48.9409V48.63C317.94 49.2776 317.209 49.6024 316.276 49.6024C315.436 49.6024 314.722 49.3075 314.134 48.7177C313.546 48.1279 313.252 47.4026 313.252 46.5379C313.252 45.6751 313.546 44.9479 314.134 44.3581C314.722 43.7683 315.436 43.4734 316.276 43.4734C317.209 43.4734 317.94 43.7982 318.468 44.4457ZM317.864 47.8948C318.242 47.5202 318.43 47.0679 318.43 46.5379C318.43 46.0059 318.24 45.5556 317.864 45.187C317.485 44.8183 317.032 44.633 316.504 44.633C315.976 44.633 315.52 44.8183 315.144 45.187C314.765 45.5556 314.577 46.0079 314.577 46.5379C314.577 47.0699 314.767 47.5202 315.144 47.8888C315.522 48.2574 315.976 48.4427 316.504 48.4427C317.034 48.4427 317.487 48.2614 317.864 47.8948Z" fill="white"/>
<path d="M321.051 49.2159C321.051 49.166 321.068 49.1122 321.102 49.0545L323.52 44.8443H321.946C321.779 44.8443 321.634 44.7845 321.511 44.6629C321.39 44.5434 321.327 44.3999 321.327 44.2326C321.327 44.0672 321.388 43.9237 321.511 43.8022C321.632 43.6826 321.777 43.6208 321.946 43.6208H325.333C325.4 43.6208 325.458 43.6448 325.51 43.6966C325.561 43.7464 325.587 43.8042 325.587 43.8719C325.587 43.9217 325.575 43.9675 325.549 44.0094L323.054 48.2316H325.258C325.426 48.2316 325.571 48.2913 325.694 48.4129C325.815 48.5324 325.877 48.6759 325.877 48.8433C325.877 49.0086 325.817 49.1521 325.694 49.2736C325.573 49.3932 325.428 49.455 325.258 49.455H321.303C321.134 49.453 321.051 49.3733 321.051 49.2159Z" fill="white"/>
<path d="M304.414 35.5811C304.408 35.5849 304.402 35.5888 304.398 35.5946C304.404 35.5888 304.408 35.5849 304.414 35.5811Z" fill="white"/>
<path d="M312.329 36.4936C312.333 36.4897 312.337 36.4857 312.341 36.4817C312.325 36.4936 312.301 36.5156 312.268 36.5435C312.27 36.5415 312.272 36.5415 312.274 36.5395C312.295 36.5235 312.313 36.5096 312.329 36.4936Z" fill="white"/>
<path d="M300.495 36.2424C300.487 36.2285 300.479 36.2185 300.471 36.2065C300.477 36.2145 300.481 36.2245 300.487 36.2324C300.489 36.2364 300.493 36.2384 300.495 36.2424Z" fill="white"/>
<path d="M275.132 31.0441C275.104 30.5041 274.672 29.9841 274.086 30.01C273.544 30.0339 273.01 30.4663 273.04 31.0441C273.069 31.586 273.083 32.13 273.091 32.674C273.111 33.8994 273.097 35.1268 273.026 36.3522C272.986 37.0774 272.923 37.8027 272.831 38.522C272.72 39.2931 272.573 40.0742 272.289 40.8035C272.204 40.9848 272.109 41.1581 271.997 41.3255C271.958 41.3693 271.92 41.4132 271.878 41.455C271.803 41.5307 271.721 41.5965 271.642 41.6662C271.628 41.6762 271.614 41.6862 271.6 41.6961C271.541 41.734 271.481 41.7718 271.42 41.8057C271.348 41.8476 271.275 41.8834 271.201 41.9193C271.007 41.991 270.808 42.0448 270.604 42.0807C270.383 42.1006 270.159 42.0986 269.935 42.0767C269.684 42.0528 269.367 42.2102 269.196 42.3796C269.015 42.5589 268.878 42.8538 268.89 43.1108C268.902 43.3778 268.99 43.6548 269.196 43.8421C269.412 44.0373 269.645 44.117 269.935 44.1449C271.543 44.3043 273.28 43.4635 274.018 42.0149C274.479 41.1083 274.695 40.1041 274.842 39.1058C275.162 36.928 275.218 34.7203 275.178 32.5225C275.17 32.0304 275.158 31.5362 275.132 31.0441Z" fill="white"/>
<path d="M329.991 32.7038C329.856 31.7752 329.363 30.9503 328.581 30.4163C327.809 29.8903 326.836 29.8445 325.941 29.98C325.047 30.1175 324.164 30.5339 323.445 31.0699C322.705 31.6198 322.085 32.2634 321.5 32.9688C320.961 33.6203 320.447 34.2938 319.85 34.8975C319.703 35.047 319.552 35.1904 319.397 35.3279C319.318 35.3976 319.238 35.4654 319.157 35.5311C319.137 35.5471 319.119 35.563 319.099 35.577C319.133 35.5511 319.163 35.5272 319.157 35.5331C319.139 35.5551 319.109 35.571 319.083 35.5889C319.069 35.5989 319.056 35.6108 319.042 35.6208C318.998 35.6567 319.036 35.6248 319.083 35.5889C319.077 35.5929 319.071 35.5969 319.067 35.5989C318.829 35.7702 318.575 35.9177 318.313 36.0492C318.204 36.103 318.093 36.1528 317.982 36.2006C317.539 36.376 317.08 36.5075 316.61 36.5812C316.367 36.6051 316.121 36.6091 315.875 36.5852C315.754 36.5613 315.637 36.5294 315.52 36.4896C315.462 36.4617 315.405 36.4298 315.351 36.3959C315.337 36.3859 315.323 36.378 315.309 36.368C315.285 36.3441 315.262 36.3222 315.258 36.3182C315.232 36.2923 315.206 36.2644 315.182 36.2365C315.196 36.2564 315.21 36.2764 315.226 36.3042C315.21 36.2783 315.192 36.2544 315.174 36.2305C315.174 36.2305 315.174 36.2285 315.172 36.2285C315.162 36.2166 315.15 36.2046 315.139 36.1927C315.093 36.1389 315.061 36.0651 315.158 36.2026C315.113 36.1329 315.073 36.0592 315.037 35.9854C315.035 35.9815 315.035 35.9775 315.033 35.9735C315.033 35.9735 315.033 35.9735 315.033 35.9715C315.059 35.8938 315.087 35.8161 315.109 35.7364C315.389 34.76 315.458 33.702 315.313 32.6998C315.178 31.7713 314.684 30.9463 313.902 30.4124C313.131 29.8863 312.157 29.8405 311.263 29.976C310.368 30.1135 309.486 30.5299 308.766 31.0659C308.027 31.6158 307.406 32.2594 306.822 32.9648C306.282 33.6163 305.768 34.2898 305.172 34.8935C305.025 35.043 304.874 35.1864 304.718 35.3239C304.64 35.3937 304.559 35.4614 304.479 35.5272C304.461 35.5431 304.44 35.5571 304.42 35.573C304.454 35.5471 304.485 35.5232 304.479 35.5292C304.461 35.5511 304.43 35.567 304.404 35.5849C304.39 35.5949 304.378 35.6069 304.364 35.6168C304.319 35.6527 304.358 35.6208 304.404 35.5849C304.398 35.5889 304.392 35.5929 304.388 35.5949C304.15 35.7663 303.896 35.9137 303.634 36.0452C303.526 36.099 303.415 36.1488 303.304 36.1966C302.861 36.372 302.401 36.5035 301.932 36.5772C301.688 36.6011 301.442 36.6051 301.196 36.5812C301.076 36.5573 300.959 36.5254 300.842 36.4856C300.783 36.4577 300.727 36.4258 300.673 36.3919C300.658 36.382 300.644 36.374 300.63 36.364C300.606 36.3401 300.584 36.3182 300.58 36.3142C300.554 36.2883 300.527 36.2604 300.503 36.2325C300.517 36.2524 300.531 36.2724 300.548 36.3003C300.531 36.2744 300.513 36.2504 300.495 36.2265C300.495 36.2265 300.495 36.2245 300.493 36.2245C300.483 36.2126 300.471 36.2006 300.461 36.1887C300.415 36.1349 300.382 36.0612 300.479 36.1986C300.443 36.1429 300.409 36.0851 300.378 36.0253C300.334 35.9037 300.3 35.7782 300.274 35.6507C300.264 35.4813 300.27 35.314 300.286 35.1446C300.348 34.758 300.447 34.3795 300.517 33.9949C300.626 33.4071 300.658 32.8711 300.562 32.2793C300.546 32.1757 300.491 32.0701 300.419 31.9725C300.356 31.8769 300.276 31.7952 300.177 31.7254C300.145 31.7015 300.112 31.6796 300.082 31.6617C299.859 31.5321 299.528 31.4764 299.276 31.5581C299.244 31.568 299.214 31.584 299.182 31.5959C298.962 31.6696 298.766 31.8111 298.652 32.0343C298.261 32.7854 297.858 33.5326 297.394 34.242C297.273 34.4273 297.148 34.6106 297.02 34.7899C296.959 34.8736 296.899 34.9533 296.836 35.035C296.802 35.0769 296.768 35.1187 296.733 35.1605C296.465 35.4813 296.175 35.7882 295.853 36.0572C295.823 36.0831 295.786 36.109 295.754 36.1349C295.668 36.1966 295.579 36.2564 295.488 36.3102C295.387 36.37 295.283 36.4258 295.178 36.4756C294.767 36.625 294.326 36.7028 293.892 36.7645C292.827 36.902 291.751 36.9558 290.677 36.9877C289.425 37.0255 288.172 37.0255 286.921 37.0096C284.954 36.9837 282.992 36.8841 281.025 36.8044C280.838 36.7964 280.646 36.7964 280.457 36.7864V36.7844H280.451C280.441 36.7426 280.433 36.7008 280.425 36.6589C280.395 36.4059 280.374 36.1528 280.362 35.8978C280.35 35.6089 280.348 35.3199 280.35 35.029C280.352 34.7401 280.358 34.4512 280.364 34.1623C280.366 34.0846 280.366 34.0069 280.368 33.9292C280.395 32.0084 280.439 30.0876 280.461 28.1668C280.481 26.519 280.489 24.8711 280.491 23.2213C280.491 22.6814 280.01 22.1613 279.446 22.1872C278.879 22.2131 278.4 22.6415 278.4 23.2213C278.4 25.449 278.382 27.6766 278.345 29.9062C278.323 31.3249 278.289 32.7436 278.273 34.1623C278.265 34.9453 278.245 35.7344 278.317 36.5155C278.376 37.1531 278.476 37.7608 278.906 38.2649C279.254 38.6734 279.774 38.7949 280.286 38.8407C280.777 38.8846 281.279 38.8846 281.773 38.9085C283.274 38.9842 284.777 39.036 286.28 39.0639C288.017 39.0958 289.756 39.0998 291.491 39.0221C292.234 38.9882 292.976 38.9404 293.715 38.8527C294.348 38.777 294.997 38.6993 295.607 38.51C296.473 38.239 297.219 37.6871 297.838 37.0395C298.011 36.8602 298.174 36.6709 298.331 36.4796C298.474 36.9399 298.714 37.3683 299.053 37.7269C299.945 38.6674 301.303 38.763 302.514 38.5697C303.002 38.492 303.477 38.3486 303.933 38.1633C304.428 37.962 304.916 37.7409 305.357 37.44C306.433 36.7047 307.245 35.7165 308.059 34.7182C308.488 34.1922 308.924 33.6681 309.421 33.2019C309.548 33.0843 309.677 32.9688 309.812 32.8592C309.83 32.8452 309.848 32.8313 309.864 32.8173C309.927 32.7715 309.991 32.7257 310.056 32.6818C310.314 32.5085 310.588 32.3571 310.872 32.2275C311.164 32.114 311.464 32.0283 311.775 31.9765C311.936 31.9625 312.099 31.9605 312.26 31.9705C312.391 31.9944 312.52 32.0283 312.645 32.0741C312.703 32.104 312.76 32.1359 312.814 32.1717C312.851 32.2036 312.889 32.2355 312.923 32.2714C312.949 32.2973 312.971 32.3252 312.996 32.3531C313.002 32.361 313.006 32.369 313.012 32.377C313.06 32.4507 313.102 32.5284 313.141 32.6081C313.197 32.7635 313.239 32.9229 313.27 33.0863C313.318 33.5446 313.3 34.0109 313.247 34.4671C313.185 34.8637 313.084 35.2542 312.939 35.6308C312.877 35.7663 312.808 35.8978 312.73 36.0253C312.689 36.0891 312.645 36.1508 312.603 36.2146C312.579 36.2425 312.552 36.2724 312.528 36.3003C312.472 36.362 312.411 36.4198 312.351 36.4756C312.417 36.4218 312.351 36.4896 312.296 36.5254C312.292 36.5274 312.288 36.5294 312.284 36.5334C312.264 36.5493 312.244 36.5653 312.226 36.5832C312.246 36.5653 312.262 36.5513 312.278 36.5374C312.188 36.5991 312.091 36.6509 311.994 36.6988C311.857 36.7466 311.718 36.7844 311.575 36.8103C311.458 36.8183 311.341 36.8183 311.225 36.8103C311.069 36.7825 310.918 36.7426 310.771 36.6888C310.699 36.6529 310.626 36.6131 310.558 36.5693C310.546 36.5613 310.527 36.5493 310.507 36.5354C310.475 36.5075 310.437 36.4756 310.423 36.4617C310.376 36.4178 310.332 36.372 310.29 36.3262C310.288 36.3242 310.286 36.3222 310.284 36.3202C310.207 36.2006 310.136 36.0831 310.078 35.9536C309.977 35.7324 309.679 35.5411 309.453 35.4793C309.204 35.4116 308.869 35.4415 308.647 35.583C308.424 35.7244 308.228 35.9376 308.168 36.2006C308.101 36.4876 308.152 36.7306 308.273 36.9976C309.105 38.8288 311.666 39.4245 313.316 38.3346C313.524 38.1971 313.713 38.0397 313.886 37.8704C313.908 37.8883 313.929 37.9102 313.951 37.9282C314.37 38.2589 314.847 38.504 315.381 38.5937C316.385 38.763 317.412 38.6156 318.363 38.2689C319.345 37.9102 320.199 37.4121 320.971 36.7107C321.766 35.9874 322.405 35.1227 323.09 34.3038C323.469 33.8514 323.866 33.4111 324.313 33.0206C324.366 32.9747 324.42 32.9289 324.474 32.8831C324.491 32.8691 324.507 32.8552 324.525 32.8432C324.634 32.7635 324.744 32.6838 324.859 32.6121C325.091 32.4647 325.335 32.3391 325.585 32.2255C325.867 32.118 326.159 32.0363 326.457 31.9845C326.618 31.9705 326.782 31.9685 326.943 31.9785C327.074 32.0024 327.203 32.0363 327.328 32.0821C327.386 32.112 327.442 32.1439 327.497 32.1797C327.533 32.2116 327.571 32.2435 327.606 32.2793C327.632 32.3052 327.654 32.3331 327.678 32.361C327.684 32.369 327.688 32.377 327.694 32.385C327.743 32.4587 327.785 32.5364 327.823 32.6161C327.88 32.7715 327.922 32.9309 327.952 33.0923C328.001 33.5506 327.982 34.0168 327.93 34.4731C327.868 34.8696 327.767 35.2602 327.622 35.6368C327.559 35.7722 327.491 35.9038 327.412 36.0313C327.372 36.095 327.328 36.1568 327.285 36.2206C327.261 36.2485 327.235 36.2783 327.211 36.3062C327.154 36.368 327.094 36.4258 327.033 36.4816C327.1 36.4278 327.033 36.4955 326.979 36.5314C326.975 36.5334 326.971 36.5354 326.967 36.5394C326.947 36.5553 326.927 36.5712 326.908 36.5892C326.929 36.5712 326.945 36.5573 326.961 36.5434C326.87 36.6051 326.773 36.6569 326.677 36.7047C326.54 36.7526 326.401 36.7904 326.258 36.8163C326.141 36.8243 326.024 36.8243 325.907 36.8163C325.752 36.7884 325.601 36.7486 325.454 36.6948C325.381 36.6589 325.309 36.6191 325.24 36.5752C325.228 36.5673 325.21 36.5553 325.19 36.5414C325.158 36.5135 325.119 36.4816 325.105 36.4676C325.059 36.4238 325.014 36.378 324.972 36.3321C324.97 36.3302 324.968 36.3282 324.966 36.3262C324.89 36.2066 324.819 36.0891 324.761 35.9595C324.66 35.7384 324.362 35.5471 324.136 35.4853C323.886 35.4176 323.552 35.4475 323.33 35.5889C323.106 35.7304 322.911 35.9436 322.85 36.2066C322.784 36.4935 322.834 36.7366 322.955 37.0036C323.787 38.8348 326.348 39.4305 327.999 38.3406C328.917 37.7329 329.498 36.7785 329.794 35.7404C330.068 34.766 330.136 33.708 329.991 32.7038ZM300.64 36.3919C300.679 36.4198 300.717 36.4457 300.713 36.4477C300.707 36.4517 300.675 36.4238 300.64 36.3919ZM315.325 36.3919C315.363 36.4198 315.401 36.4457 315.397 36.4477C315.391 36.4517 315.357 36.4238 315.325 36.3919Z" fill="white"/>
<path d="M327.013 36.4936C327.017 36.4897 327.021 36.4857 327.025 36.4817C327.009 36.4936 326.985 36.5156 326.953 36.5435C326.955 36.5415 326.957 36.5415 326.959 36.5395C326.977 36.5235 326.995 36.5096 327.013 36.4936Z" fill="white"/>
<path d="M315.178 36.2424C315.17 36.2285 315.162 36.2165 315.154 36.2065C315.16 36.2145 315.164 36.2245 315.17 36.2324C315.174 36.2364 315.176 36.2384 315.178 36.2424Z" fill="white"/>
<path d="M319.096 35.5811C319.091 35.5849 319.087 35.5888 319.081 35.5926C319.087 35.5888 319.093 35.5849 319.096 35.5811Z" fill="white"/>
<path d="M273.879 28.1031C274.708 28.1031 275.38 27.4385 275.38 26.6187C275.38 25.7989 274.708 25.1343 273.879 25.1343C273.05 25.1343 272.377 25.7989 272.377 26.6187C272.377 27.4385 273.05 28.1031 273.879 28.1031Z" fill="white"/>
<path d="M286.879 29.3583C287.008 29.3583 287.131 29.3404 287.247 29.3105L287.253 29.3285C287.253 29.3285 290.032 29.1431 291.648 29.3583V29.3544C291.68 29.3563 291.71 29.3583 291.743 29.3583C292.402 29.3583 292.933 28.8303 292.933 28.1808C292.933 27.5292 292.4 27.0032 291.743 27.0032C291.642 27.0032 291.543 27.0171 291.451 27.041C290.886 27.0729 288.462 27.1945 286.977 27.0032V27.0072C286.945 27.0052 286.911 27.0032 286.879 27.0032C286.155 27.0032 285.567 27.5312 285.567 28.1808C285.567 28.8323 286.155 29.3583 286.879 29.3583Z" fill="white"/>
<path d="M353.792 29.2528C353.569 28.0635 353.338 26.8344 353.179 25.4499C353.119 24.918 352.637 24.5355 352.1 24.5953C351.564 24.655 351.178 25.1351 351.238 25.665C351.403 27.1173 351.64 28.3823 351.871 29.6054C352.229 31.5119 352.568 33.3128 352.558 35.528C352.546 38.3648 352.307 41.594 350.633 44.0244C349.066 46.3014 345.843 47.399 342.857 47.399C341.676 47.399 340.53 47.2277 339.542 46.8871C338.503 46.5305 337.677 45.9129 337.215 45.1479C337.062 44.8969 336.943 44.624 336.851 44.3172C336.688 43.7754 336.63 43.1937 336.604 42.5801C337.508 43.2694 338.613 43.5523 339.654 43.357C342.387 42.8411 344.047 40.2354 343.986 36.5559C343.928 33.008 342.2 28.9779 339.114 28.4998C338.965 28.4759 337.631 28.3026 336.419 29.2767C335.362 30.1274 334.775 31.5418 334.675 33.4821C334.647 34.016 335.063 34.4722 335.601 34.4981C336.14 34.526 336.6 34.1136 336.626 33.5797C336.694 32.249 337.04 31.2868 337.627 30.7987C338.175 30.3405 338.798 30.4122 338.81 30.4122C340.506 30.6752 341.983 33.504 342.033 36.5878C342.049 37.6058 341.901 40.9625 339.288 41.4546C338.786 41.5502 338.209 41.3828 337.745 41.0083C336.984 40.3947 336.534 39.2592 336.469 37.797C336.467 37.7233 336.465 37.6476 336.463 37.5739C336.447 37.042 335.997 36.6177 335.463 36.6356C334.926 36.6476 334.5 37.0878 334.51 37.6217C334.512 37.7094 334.514 37.795 334.518 37.8807C334.53 38.2492 334.542 38.6158 334.554 38.9843C334.578 39.6875 334.6 40.3908 334.619 41.094C334.625 41.2912 334.627 41.4904 334.629 41.6896C334.643 42.7315 334.659 43.8092 334.978 44.873C334.978 44.873 334.978 44.873 334.978 44.875C335.117 45.3392 335.3 45.7555 335.537 46.146C336.234 47.3014 337.43 48.2158 338.903 48.7198C340.092 49.1282 341.446 49.3354 342.843 49.3334C346.43 49.3334 350.284 47.9648 352.245 45.1181C354.216 42.2554 354.495 38.6696 354.509 35.538C354.524 33.1395 354.168 31.2529 353.792 29.2528Z" fill="white"/>
<path d="M345.24 36.9064C345.184 37.4383 345.574 37.9144 346.11 37.9702C346.144 37.9741 346.179 37.9761 346.213 37.9761C346.707 37.9761 347.131 37.6056 347.183 37.1096C347.991 29.4638 341.738 21.1766 341.471 20.828C341.145 20.4017 340.532 20.318 340.102 20.6407C339.672 20.9635 339.588 21.5711 339.913 21.9974C339.974 22.0751 345.968 30.0276 345.24 36.9064Z" fill="white"/>
<path d="M348.771 36.7471C348.736 37.281 349.144 37.7411 349.683 37.775C349.703 37.777 349.725 37.777 349.745 37.777C350.256 37.777 350.686 37.3826 350.72 36.8706C351.085 31.1532 348.015 23.4099 347.884 23.0831C347.686 22.5851 347.117 22.3421 346.617 22.5413C346.114 22.7385 345.869 23.3023 346.068 23.7983C346.1 23.874 349.108 31.468 348.771 36.7471Z" fill="white"/>
<path d="M351.778 50.7241C351.365 50.3113 351.157 49.8118 351.157 49.2277C351.157 48.6437 351.365 48.1442 351.778 47.7314C352.191 47.3185 352.69 47.1111 353.275 47.1111C353.859 47.1111 354.359 47.3185 354.772 47.7314C355.185 48.1442 355.392 48.6437 355.392 49.2277C355.392 49.8118 355.185 50.3113 354.772 50.7241C354.359 51.137 353.859 51.3444 353.275 51.3444C352.69 51.3444 352.191 51.137 351.778 50.7241ZM352.005 47.9469C351.659 48.2973 351.486 48.7243 351.486 49.2277C351.486 49.7312 351.661 50.1582 352.009 50.5106C352.358 50.8631 352.781 51.0403 353.277 51.0403C353.772 51.0403 354.194 50.8631 354.544 50.5106C354.893 50.1582 355.068 49.7292 355.068 49.2277C355.068 48.7243 354.893 48.2973 354.544 47.9449C354.196 47.5924 353.772 47.4152 353.277 47.4152C352.779 47.4152 352.356 47.5924 352.005 47.9469ZM353.791 49.2962L354.329 50.0212C354.357 50.0676 354.369 50.1139 354.369 50.1562C354.369 50.2226 354.347 50.279 354.302 50.3233C354.258 50.3676 354.202 50.3898 354.135 50.3898C354.053 50.3898 353.984 50.3475 353.926 50.2609L353.2 49.1673C353.184 49.1432 353.176 49.1271 353.176 49.115C353.176 49.0727 353.198 49.0505 353.241 49.0505H353.339C353.444 49.0505 353.531 49.0264 353.599 48.98C353.668 48.9337 353.702 48.8612 353.702 48.7645C353.702 48.5611 353.583 48.4604 353.345 48.4604H353.087V50.1501C353.087 50.2166 353.063 50.273 353.017 50.3193C352.971 50.3656 352.914 50.3898 352.848 50.3898C352.781 50.3898 352.725 50.3656 352.678 50.3193C352.632 50.273 352.608 50.2166 352.608 50.1501V48.2792C352.608 48.2288 352.626 48.1865 352.66 48.1503C352.694 48.116 352.739 48.0979 352.789 48.0979H353.351C353.589 48.0979 353.783 48.1563 353.93 48.2731C354.079 48.3899 354.151 48.5531 354.151 48.7645C354.153 49.0344 354.032 49.2116 353.791 49.2962Z" fill="white"/>
</svg>
