<svg width="143" height="74" viewBox="0 0 143 74" fill="none" xmlns="http://www.w3.org/2000/svg">
<path d="M138.529 23.2981C138.178 21.0491 137.813 18.7247 137.563 16.1065C137.468 15.1007 136.708 14.3774 135.863 14.4904C135.018 14.6034 134.41 15.5113 134.505 16.5134C134.764 19.2596 135.138 21.6518 135.502 23.9649C136.066 27.5701 136.601 30.9756 136.585 35.1647C136.566 40.5292 136.189 46.6358 133.552 51.2318C131.082 55.5376 126.004 57.6134 121.299 57.6134C119.437 57.6134 117.633 57.2894 116.075 56.6452C114.438 55.9709 113.137 54.803 112.408 53.3564C112.168 52.8818 111.981 52.3657 111.835 51.7855C111.579 50.7609 111.487 49.6608 111.446 48.5005C112.871 49.804 114.612 50.3389 116.252 49.9697C120.558 48.994 123.173 44.0666 123.078 37.1086C122.986 30.3992 120.264 22.7782 115.4 21.8741C115.166 21.8289 113.064 21.5011 111.155 23.3433C109.489 24.9519 108.565 27.6266 108.406 31.2958C108.362 32.3054 109.017 33.1681 109.866 33.2171C110.715 33.2698 111.44 32.49 111.481 31.4804C111.588 28.9639 112.133 27.1444 113.057 26.2214C113.922 25.355 114.903 25.4906 114.922 25.4906C117.595 25.9878 119.922 31.3372 120.001 37.1689C120.026 39.0939 119.792 45.4416 115.676 46.3721C114.884 46.5529 113.976 46.2365 113.244 45.5282C112.044 44.3679 111.335 42.2206 111.234 39.4555C111.231 39.3161 111.227 39.173 111.224 39.0336C111.199 38.0278 110.49 37.2254 109.648 37.2593C108.802 37.2819 108.131 38.1144 108.147 39.124C108.15 39.2898 108.153 39.4518 108.159 39.6138C108.178 40.3107 108.197 41.0038 108.216 41.7008C108.254 43.0306 108.289 44.3604 108.318 45.6902C108.327 46.0632 108.33 46.4399 108.334 46.8166C108.356 48.7869 108.381 50.8249 108.884 52.8366C108.884 52.8366 108.884 52.8366 108.884 52.8403C109.103 53.7181 109.391 54.5054 109.765 55.2438C110.863 57.4288 112.747 59.1579 115.068 60.111C116.942 60.8833 119.076 61.2751 121.277 61.2713C126.928 61.2713 133.001 58.6832 136.091 53.2999C139.197 47.8865 139.637 41.1056 139.659 35.1835C139.681 30.6479 139.121 27.0803 138.529 23.2981Z" fill="#090129"/>
<path d="M125.054 37.7716C124.965 38.7774 125.58 39.6778 126.425 39.7833C126.479 39.7908 126.533 39.7946 126.586 39.7946C127.365 39.7946 128.033 39.0939 128.116 38.1558C129.388 23.6974 119.535 8.02589 119.114 7.36663C118.601 6.56045 117.636 6.40223 116.958 7.01251C116.281 7.6228 116.148 8.77179 116.661 9.57797C116.756 9.72489 126.2 24.7635 125.054 37.7716Z" fill="#090129"/>
<path d="M130.617 37.4703C130.563 38.4799 131.206 39.3501 132.054 39.4142C132.086 39.4179 132.121 39.4179 132.152 39.4179C132.957 39.4179 133.634 38.672 133.688 37.7039C134.264 26.892 129.426 12.249 129.221 11.6312C128.907 10.6894 128.011 10.2298 127.223 10.6065C126.431 10.9794 126.045 12.0456 126.358 12.9836C126.409 13.1267 131.149 27.4872 130.617 37.4703Z" fill="#090129"/>
<path d="M135.281 66.1988C134.632 65.4265 134.306 64.4922 134.306 63.3997C134.306 62.3073 134.632 61.373 135.281 60.6007C135.93 59.8285 136.715 59.4404 137.633 59.4404C138.551 59.4404 139.337 59.8285 139.986 60.6007C140.635 61.373 140.961 62.3073 140.961 63.3997C140.961 64.4922 140.635 65.4265 139.986 66.1988C139.337 66.971 138.551 67.3591 137.633 67.3591C136.715 67.3591 135.93 66.971 135.281 66.1988ZM135.638 61.0038C135.094 61.6593 134.822 62.4579 134.822 63.3997C134.822 64.3415 135.097 65.1402 135.645 65.7994C136.193 66.4587 136.857 66.7902 137.636 66.7902C138.415 66.7902 139.077 66.4587 139.628 65.7994C140.176 65.1402 140.451 64.3378 140.451 63.3997C140.451 62.4579 140.176 61.6593 139.628 61C139.08 60.3408 138.415 60.0093 137.636 60.0093C136.854 60.0093 136.189 60.3408 135.638 61.0038ZM138.444 63.5278L139.289 64.884C139.333 64.9707 139.352 65.0573 139.352 65.1364C139.352 65.2607 139.318 65.3662 139.248 65.4491C139.178 65.532 139.09 65.5734 138.985 65.5734C138.855 65.5734 138.748 65.4943 138.656 65.3323L137.516 63.2867C137.491 63.2415 137.478 63.2114 137.478 63.1888C137.478 63.1097 137.513 63.0682 137.579 63.0682H137.734C137.899 63.0682 138.035 63.023 138.143 62.9364C138.251 62.8497 138.304 62.7141 138.304 62.5333C138.304 62.1528 138.118 61.9644 137.744 61.9644H137.339V65.1251C137.339 65.2494 137.301 65.3549 137.228 65.4416C137.155 65.5282 137.066 65.5734 136.962 65.5734C136.857 65.5734 136.769 65.5282 136.696 65.4416C136.623 65.3549 136.585 65.2494 136.585 65.1251V61.6254C136.585 61.5312 136.614 61.4521 136.667 61.3843C136.721 61.3203 136.791 61.2863 136.87 61.2863H137.753C138.127 61.2863 138.431 61.3956 138.662 61.6141C138.896 61.8326 139.01 62.1377 139.01 62.5333C139.014 63.0381 138.824 63.3696 138.444 63.5278Z" fill="#090129"/>
<path d="M28.7563 59.4102V53.6878C28.7563 52.9796 28.5727 52.3994 28.2023 51.9436C27.8318 51.4878 27.3696 51.2617 26.8155 51.2617C26.2614 51.2617 25.7992 51.4878 25.4287 51.9436C25.0583 52.3994 24.8747 52.9796 24.8747 53.6878V59.4102C24.8747 59.7567 24.7733 60.0506 24.5676 60.2917C24.3618 60.5365 24.1148 60.6571 23.8267 60.6571C23.5354 60.6571 23.2884 60.5365 23.0858 60.2917C22.88 60.0468 22.7787 59.753 22.7787 59.4102V50.3199C22.7787 49.9734 22.88 49.6795 23.0858 49.4384C23.2916 49.1935 23.5386 49.073 23.8267 49.073C24.118 49.073 24.3649 49.1935 24.5676 49.4384C24.7733 49.6833 24.8747 49.9771 24.8747 50.3199V50.3915C25.5744 49.5138 26.4387 49.073 27.4677 49.073C28.0471 49.073 28.5917 49.2312 29.1015 49.5439C29.608 49.8566 30.0133 50.2973 30.3172 50.8624C31.1879 49.6682 32.2296 49.073 33.4454 49.073C34.4206 49.073 35.2311 49.4535 35.8707 50.2145C36.5102 50.9754 36.83 51.985 36.83 53.2395V59.4102C36.83 59.7567 36.7287 60.0506 36.5229 60.2917C36.3171 60.5365 36.0701 60.6571 35.782 60.6571C35.4907 60.6571 35.2438 60.5365 35.0411 60.2917C34.8353 60.0468 34.734 59.753 34.734 59.4102V53.6878C34.734 52.9796 34.5504 52.3994 34.1799 51.9436C33.8095 51.4878 33.3504 51.2617 32.7932 51.2617C32.2391 51.2617 31.7768 51.4878 31.4064 51.9436C31.036 52.3994 30.8523 52.9796 30.8523 53.6878V59.4102C30.8523 59.7567 30.751 60.0506 30.5452 60.2917C30.3394 60.5365 30.0925 60.6571 29.8043 60.6571C29.5131 60.6571 29.2661 60.5365 29.0635 60.2917C28.8577 60.0506 28.7563 59.7567 28.7563 59.4102Z" fill="#090129"/>
<path d="M40.471 58.9882C39.4958 57.8731 39.0051 56.5019 39.0051 54.8669C39.0051 53.2357 39.4927 51.8607 40.471 50.7456C41.4462 49.6305 42.6493 49.073 44.074 49.073C45.4988 49.073 46.6988 49.6305 47.6771 50.7456C48.6523 51.8607 49.143 53.2357 49.143 54.8669C49.143 56.4981 48.6554 57.8731 47.6771 58.9882C46.7019 60.1033 45.4988 60.6609 44.074 60.6609C42.6493 60.6609 41.4462 60.1033 40.471 58.9882ZM41.9559 52.3731C41.3892 53.0323 41.1042 53.8649 41.1042 54.8707C41.1042 55.8765 41.3892 56.7091 41.9559 57.3683C42.5226 58.0276 43.2287 58.3591 44.074 58.3591C44.9194 58.3591 45.6255 58.0276 46.1922 57.3683C46.7589 56.7091 47.0439 55.8765 47.0439 54.8707C47.0439 53.8649 46.7589 53.0323 46.1922 52.3731C45.6255 51.7138 44.9194 51.386 44.074 51.386C43.2287 51.3823 42.5226 51.7138 41.9559 52.3731Z" fill="#090129"/>
<path d="M57.3906 59.4102V53.6878C57.3906 52.9796 57.207 52.3994 56.8366 51.9436C56.4661 51.4878 56.0039 51.2617 55.4498 51.2617C54.8957 51.2617 54.4335 51.4878 54.063 51.9436C53.6926 52.3994 53.5089 52.9796 53.5089 53.6878V59.4102C53.5089 59.7567 53.4076 60.0506 53.2018 60.2917C52.996 60.5365 52.7491 60.6571 52.461 60.6571C52.1697 60.6571 51.9227 60.5365 51.7201 60.2917C51.5143 60.0468 51.413 59.753 51.413 59.4102V50.3199C51.413 49.9734 51.5143 49.6795 51.7201 49.4384C51.9259 49.1935 52.1728 49.073 52.461 49.073C52.7522 49.073 52.9992 49.1935 53.2018 49.4384C53.4076 49.6833 53.5089 49.9771 53.5089 50.3199V50.3915C54.2087 49.5138 55.073 49.073 56.102 49.073C56.6814 49.073 57.226 49.2312 57.7357 49.5439C58.2423 49.8566 58.6476 50.2973 58.9515 50.8624C59.8222 49.6682 60.8639 49.073 62.0797 49.073C63.0548 49.073 63.8654 49.4535 64.5049 50.2145C65.1445 50.9754 65.4643 51.985 65.4643 53.2395V59.4102C65.4643 59.7567 65.363 60.0506 65.1572 60.2917C64.9514 60.5365 64.7044 60.6571 64.4163 60.6571C64.125 60.6571 63.878 60.5365 63.6754 60.2917C63.4696 60.0468 63.3683 59.753 63.3683 59.4102V53.6878C63.3683 52.9796 63.1847 52.3994 62.8142 51.9436C62.4438 51.4878 61.9847 51.2617 61.4275 51.2617C60.8734 51.2617 60.4111 51.4878 60.0407 51.9436C59.6702 52.3994 59.4866 52.9796 59.4866 53.6878V59.4102C59.4866 59.7567 59.3853 60.0506 59.1795 60.2917C58.9737 60.5365 58.7267 60.6571 58.4386 60.6571C58.1473 60.6571 57.9004 60.5365 57.6977 60.2917C57.4951 60.0506 57.3906 59.7567 57.3906 59.4102Z" fill="#090129"/>
<path d="M70.9291 49.3557H72.4742C72.737 49.3557 72.9649 49.4687 73.158 49.6985C73.348 49.9245 73.4462 50.1957 73.4462 50.5122C73.4462 50.8249 73.3512 51.0961 73.158 51.3259C72.9681 51.5519 72.7401 51.6687 72.4742 51.6687H70.9291V59.4103C70.9291 59.7569 70.8278 60.0507 70.622 60.2918C70.4162 60.5367 70.1692 60.6572 69.8811 60.6572C69.5898 60.6572 69.3429 60.5367 69.1402 60.2918C68.9344 60.0469 68.8331 59.7531 68.8331 59.4103V51.6649H68.0606C67.7978 51.6649 67.5698 51.5519 67.3767 51.3221C67.1867 51.0961 67.0886 50.8249 67.0886 50.5084C67.0886 50.1957 67.1835 49.9245 67.3767 49.6947C67.5666 49.4687 67.7946 49.3519 68.0606 49.3519H68.8331V47.2084C68.8331 46.8618 68.9344 46.5679 69.1402 46.3268C69.346 46.082 69.593 45.9614 69.8811 45.9614C70.1724 45.9614 70.4193 46.082 70.622 46.3268C70.8278 46.5717 70.9291 46.8655 70.9291 47.2084V49.3557Z" fill="#090129"/>
<path d="M82.6438 50.9114V50.3237C82.6438 49.9771 82.7451 49.6833 82.9509 49.4422C83.1567 49.1973 83.4036 49.0768 83.6918 49.0768C83.983 49.0768 84.23 49.1973 84.4326 49.4422C84.6384 49.687 84.7398 49.9809 84.7398 50.3237V59.4102C84.7398 59.7567 84.6384 60.0506 84.4326 60.2917C84.2268 60.5365 83.9799 60.6571 83.6918 60.6571C83.4005 60.6571 83.1535 60.5365 82.9509 60.2917C82.7451 60.0468 82.6438 59.753 82.6438 59.4102V58.8225C81.8142 60.0468 80.6649 60.6609 79.199 60.6609C77.8787 60.6609 76.7579 60.1033 75.8334 58.9882C74.9089 57.8731 74.4467 56.5019 74.4467 54.8669C74.4467 53.2357 74.9089 51.8607 75.8334 50.7456C76.7579 49.6305 77.8787 49.073 79.199 49.073C80.6649 49.073 81.8142 49.6871 82.6438 50.9114ZM81.6939 57.4324C82.2892 56.7242 82.5836 55.869 82.5836 54.8669C82.5836 53.8611 82.286 53.0097 81.6939 52.3128C81.0987 51.6159 80.3863 51.2655 79.5568 51.2655C78.7273 51.2655 78.0117 51.6159 77.4197 52.3128C76.8244 53.0097 76.53 53.8649 76.53 54.8669C76.53 55.8728 76.8276 56.7242 77.4197 57.4211C78.0149 58.118 78.7273 58.4684 79.5568 58.4684C80.3895 58.4684 81.1019 58.1255 81.6939 57.4324Z" fill="#090129"/>
<path d="M86.703 59.9303C86.703 59.8361 86.7283 59.7344 86.7822 59.6252L90.5815 51.6651H88.1088C87.846 51.6651 87.618 51.5521 87.4249 51.3223C87.2349 51.0963 87.1368 50.825 87.1368 50.5086C87.1368 50.1959 87.2317 49.9247 87.4249 49.6949C87.6148 49.4688 87.8428 49.3521 88.1088 49.3521H93.431C93.5355 49.3521 93.6273 49.3973 93.7097 49.4952C93.7888 49.5894 93.83 49.6986 93.83 49.8267C93.83 49.9209 93.811 50.0075 93.7698 50.0867L89.8501 58.0693H93.3139C93.5767 58.0693 93.8046 58.1823 93.9978 58.4121C94.1877 58.6382 94.2859 58.9094 94.2859 59.2258C94.2859 59.5385 94.1909 59.8098 93.9978 60.0396C93.8078 60.2656 93.5798 60.3824 93.3139 60.3824H87.0988C86.8328 60.3786 86.703 60.2279 86.703 59.9303Z" fill="#090129"/>
<path d="M60.5594 34.1514C60.5502 34.1587 60.541 34.166 60.5349 34.1769C60.5441 34.166 60.5502 34.1587 60.5594 34.1514Z" fill="#090129"/>
<path d="M72.9965 35.8769C73.0029 35.8693 73.0092 35.8618 73.0155 35.8542C72.9902 35.8769 72.9522 35.9183 72.9016 35.971C72.9047 35.9673 72.9079 35.9673 72.911 35.9635C72.9427 35.9334 72.9712 35.907 72.9965 35.8769Z" fill="#090129"/>
<path d="M54.4016 35.4023C54.389 35.3759 54.3763 35.3571 54.3636 35.3345C54.3731 35.3495 54.3795 35.3684 54.389 35.3834C54.3921 35.391 54.3985 35.3947 54.4016 35.4023Z" fill="#090129"/>
<path d="M14.5465 25.5736C14.5022 24.5527 13.8247 23.5695 12.9033 23.6185C12.0516 23.6637 11.2126 24.4811 11.2601 25.5736C11.3044 26.5983 11.3266 27.6267 11.3393 28.6552C11.3709 30.972 11.3487 33.2926 11.2379 35.6094C11.1746 36.9807 11.0765 38.3519 10.9308 39.7119C10.7567 41.1698 10.5256 42.6465 10.0791 44.0253C9.94615 44.3681 9.79734 44.6959 9.62004 45.0123C9.55988 45.0952 9.49973 45.1781 9.43324 45.2572C9.31609 45.4003 9.18628 45.5246 9.0628 45.6565C9.04064 45.6753 9.01847 45.6942 8.99631 45.713C8.90449 45.7846 8.80951 45.8562 8.71453 45.9202C8.60054 45.9993 8.48656 46.0671 8.36942 46.1349C8.06547 46.2705 7.75202 46.3723 7.43224 46.4401C7.08397 46.4777 6.73253 46.474 6.38108 46.4325C5.98532 46.3873 5.48823 46.6849 5.21911 47.0051C4.93416 47.3442 4.71886 47.9017 4.73786 48.3877C4.75686 48.8925 4.89617 49.4161 5.21911 49.7703C5.55789 50.1394 5.92516 50.2901 6.38108 50.3429C8.90766 50.6442 11.6369 49.0545 12.7957 46.3158C13.5207 44.6017 13.8595 42.703 14.0906 40.8157C14.594 36.6981 14.6827 32.5241 14.6194 28.3689C14.6067 27.4384 14.5877 26.5041 14.5465 25.5736Z" fill="#090129"/>
<path d="M100.751 28.7116C100.539 26.9561 99.7629 25.3965 98.5344 24.3869C97.3218 23.3924 95.7925 23.3057 94.3868 23.5619C92.981 23.8218 91.5943 24.6092 90.464 25.6225C89.302 26.6623 88.3268 27.8791 87.4086 29.2127C86.5601 30.4445 85.7527 31.7178 84.8156 32.8593C84.5844 33.1418 84.347 33.4131 84.1032 33.673C83.9797 33.8049 83.8531 33.9329 83.7264 34.0573C83.6948 34.0874 83.6663 34.1175 83.6346 34.1439C83.6884 34.0949 83.7359 34.0497 83.7264 34.061C83.6979 34.1025 83.6504 34.1326 83.6093 34.1665C83.5871 34.1853 83.5681 34.2079 83.5459 34.2268C83.4763 34.2946 83.5364 34.2343 83.6093 34.1665C83.5998 34.174 83.5903 34.1816 83.5839 34.1853C83.2103 34.5093 82.8114 34.7881 82.3998 35.0367C82.2288 35.1384 82.0547 35.2326 81.8806 35.323C81.184 35.6545 80.4621 35.9032 79.7244 36.0426C79.3413 36.0878 78.9551 36.0953 78.5688 36.0501C78.3788 36.0049 78.1952 35.9446 78.0115 35.8693C77.9197 35.8165 77.8311 35.7563 77.7456 35.6922C77.7234 35.6734 77.7013 35.6583 77.6791 35.6395C77.6411 35.5943 77.6063 35.5528 77.5999 35.5453C77.5588 35.4963 77.5176 35.4436 77.4796 35.3908C77.5018 35.4285 77.524 35.4662 77.5493 35.5189C77.524 35.47 77.4955 35.4248 77.467 35.3795C77.467 35.3795 77.467 35.3758 77.4638 35.3758C77.448 35.3532 77.429 35.3306 77.4131 35.308C77.3403 35.2063 77.2897 35.0669 77.4416 35.3268C77.372 35.195 77.3087 35.0556 77.2517 34.9162C77.2485 34.9086 77.2485 34.9011 77.2453 34.8936C77.2453 34.8936 77.2453 34.8936 77.2453 34.8898C77.2865 34.7429 77.3308 34.596 77.3657 34.4453C77.8057 32.5994 77.9134 30.599 77.6854 28.7041C77.4733 26.9486 76.6976 25.389 75.4691 24.3794C74.2565 23.3848 72.7273 23.2982 71.3215 23.5543C69.9157 23.8143 68.529 24.6016 67.3987 25.615C66.2367 26.6547 65.2615 27.8715 64.3433 29.2051C63.4948 30.437 62.6875 31.7103 61.7503 32.8518C61.5191 33.1343 61.2817 33.4055 61.0379 33.6655C60.9144 33.7973 60.7878 33.9254 60.6611 34.0497C60.6326 34.0799 60.601 34.1062 60.5693 34.1364C60.6231 34.0874 60.6706 34.0422 60.6611 34.0535C60.6326 34.0949 60.5851 34.1251 60.544 34.159C60.5218 34.1778 60.5028 34.2004 60.4807 34.2193C60.411 34.2871 60.4712 34.2268 60.544 34.159C60.5345 34.1665 60.525 34.174 60.5186 34.1778C60.145 34.5018 59.7461 34.7806 59.3345 35.0292C59.1635 35.1309 58.9894 35.2251 58.8153 35.3155C58.1187 35.647 57.3968 35.8956 56.6591 36.035C56.276 36.0802 55.8898 36.0878 55.5035 36.0426C55.3135 35.9974 55.1299 35.9371 54.9463 35.8617C54.8544 35.809 54.7658 35.7487 54.6803 35.6847C54.6581 35.6658 54.636 35.6508 54.6138 35.6319C54.5758 35.5867 54.541 35.5453 54.5347 35.5378C54.4935 35.4888 54.4523 35.4361 54.4143 35.3833C54.4365 35.421 54.4587 35.4587 54.484 35.5114C54.4587 35.4624 54.4302 35.4172 54.4017 35.372C54.4017 35.372 54.4017 35.3682 54.3985 35.3682C54.3827 35.3456 54.3637 35.323 54.3479 35.3004C54.275 35.1987 54.2244 35.0593 54.3763 35.3193C54.3194 35.2138 54.2655 35.1045 54.218 34.9915C54.1484 34.7617 54.0946 34.5244 54.0534 34.2833C54.0376 33.9631 54.0471 33.6466 54.0724 33.3264C54.1706 32.5956 54.3257 31.8798 54.4365 31.1528C54.6075 30.0414 54.6581 29.0281 54.5062 27.9092C54.4808 27.7133 54.3953 27.5137 54.2814 27.3291C54.1832 27.1482 54.0566 26.9938 53.9014 26.8619C53.8508 26.8167 53.8001 26.7753 53.7526 26.7414C53.4012 26.4965 52.8819 26.391 52.4862 26.5455C52.4355 26.5643 52.388 26.5945 52.3374 26.6171C51.9922 26.7565 51.6851 27.0239 51.5047 27.4458C50.8904 28.8661 50.2572 30.2788 49.529 31.6199C49.339 31.9702 49.1427 32.3168 48.9401 32.6559C48.8451 32.8141 48.7501 32.9648 48.652 33.1192C48.5982 33.1983 48.5443 33.2775 48.4905 33.3566C48.0694 33.9631 47.6135 34.5432 47.1069 35.0518C47.0594 35.1008 47.0024 35.1497 46.9518 35.1987C46.8156 35.3155 46.6763 35.4285 46.5338 35.5302C46.3755 35.6432 46.2109 35.7487 46.0462 35.8429C45.4004 36.1254 44.707 36.2724 44.0263 36.3891C42.3514 36.6491 40.6607 36.7508 38.9731 36.8111C37.0069 36.8826 35.0376 36.8826 33.0714 36.8525C29.9813 36.8035 26.8975 36.6152 23.8073 36.4645C23.5129 36.4494 23.2121 36.4494 22.9145 36.4306V36.4268H22.905C22.8891 36.3477 22.8765 36.2686 22.8638 36.1895C22.8163 35.7111 22.7847 35.2326 22.7657 34.7504C22.7467 34.2042 22.7435 33.6579 22.7467 33.1079C22.7498 32.5617 22.7593 32.0154 22.7688 31.4692C22.772 31.3223 22.772 31.1754 22.7752 31.0284C22.8163 27.3969 22.886 23.7653 22.9208 20.1337C22.9525 17.0183 22.9651 13.9028 22.9683 10.7836C22.9683 9.76268 22.2116 8.77944 21.3251 8.82842C20.4354 8.87739 19.6818 9.68733 19.6818 10.7836C19.6818 14.9953 19.6534 19.207 19.5964 23.4225C19.5615 26.1047 19.5077 28.787 19.4824 31.4692C19.4697 32.9497 19.4381 34.4415 19.552 35.9182C19.6439 37.1237 19.8022 38.2727 20.4765 39.2258C21.0243 39.9981 21.8412 40.2279 22.6453 40.3146C23.4179 40.3974 24.2063 40.3974 24.982 40.4426C27.3407 40.5858 29.7027 40.6837 32.0646 40.7365C34.7938 40.7968 37.5262 40.8043 40.2522 40.6574C41.4205 40.5933 42.5857 40.5029 43.7476 40.3372C44.7418 40.194 45.7613 40.0471 46.7206 39.6892C48.0821 39.1769 49.2535 38.1334 50.2255 36.909C50.4978 36.57 50.7543 36.2121 51.0012 35.8504C51.226 36.7207 51.6028 37.5306 52.1347 38.2087C53.5373 39.9868 55.6713 40.1676 57.5741 39.8022C58.3404 39.6553 59.0876 39.3841 59.8031 39.0337C60.582 38.6532 61.3482 38.2351 62.0416 37.6662C63.7323 36.2761 65.0082 34.4076 66.2873 32.5202C66.9617 31.5257 67.6456 30.5349 68.4277 29.6534C68.6271 29.4312 68.8298 29.2127 69.0419 29.0055C69.0704 28.9791 69.0989 28.9527 69.1242 28.9264C69.2223 28.8397 69.3237 28.7531 69.425 28.6702C69.8302 28.3424 70.2608 28.0561 70.7073 27.8113C71.1664 27.5965 71.6381 27.4345 72.1257 27.3366C72.379 27.3102 72.6354 27.3065 72.8887 27.3253C73.0945 27.3705 73.2972 27.4345 73.4935 27.5212C73.5853 27.5777 73.6739 27.638 73.7594 27.7058C73.8164 27.7661 73.8766 27.8263 73.9304 27.8941C73.9716 27.9431 74.0064 27.9959 74.0444 28.0486C74.0539 28.0637 74.0602 28.0787 74.0697 28.0938C74.1457 28.2332 74.2122 28.3801 74.2723 28.5308C74.361 28.8246 74.4275 29.126 74.475 29.4349C74.551 30.3014 74.5225 31.1829 74.4401 32.0456C74.342 32.7953 74.1837 33.5336 73.9557 34.2456C73.8576 34.5018 73.7499 34.7504 73.6264 34.9915C73.5631 35.1121 73.4935 35.2289 73.427 35.3494C73.389 35.4021 73.3478 35.4587 73.3098 35.5114C73.2212 35.6282 73.1262 35.7374 73.0312 35.8429C73.1357 35.7412 73.0312 35.8693 72.9457 35.9371C72.9394 35.9409 72.9331 35.9446 72.9267 35.9522C72.8951 35.9823 72.8634 36.0124 72.8349 36.0463C72.8666 36.0124 72.8919 35.9861 72.9172 35.9597C72.7748 36.0765 72.6228 36.1744 72.4708 36.2648C72.2555 36.3552 72.037 36.4268 71.8123 36.4758C71.6286 36.4909 71.445 36.4909 71.2613 36.4758C71.0175 36.4231 70.7801 36.3477 70.549 36.246C70.435 36.1782 70.321 36.1028 70.2133 36.02C70.1944 36.0049 70.1659 35.9823 70.1342 35.9559C70.0835 35.9032 70.0234 35.8429 70.0012 35.8165C69.9284 35.7337 69.8587 35.647 69.7923 35.5604C69.7891 35.5566 69.7859 35.5528 69.7828 35.5491C69.6624 35.323 69.5516 35.1008 69.4598 34.8559C69.3015 34.4377 68.8329 34.0761 68.4783 33.9593C68.0857 33.8312 67.5601 33.8877 67.2119 34.1552C66.8604 34.4227 66.5533 34.8258 66.4583 35.323C66.3538 35.8655 66.433 36.3251 66.623 36.8299C67.9306 40.292 71.9547 41.4183 74.5478 39.3577C74.8739 39.0978 75.1715 38.8001 75.4438 38.4799C75.4786 38.5138 75.5103 38.5553 75.5451 38.5892C76.2037 39.2145 76.954 39.6779 77.7931 39.8474C79.3698 40.1676 80.9845 39.8889 82.479 39.2334C84.0209 38.5553 85.3633 37.6135 86.5759 36.2874C87.8266 34.9199 88.8302 33.285 89.9067 31.7367C90.5019 30.8815 91.1257 30.049 91.8286 29.3106C91.9109 29.224 91.9964 29.1373 92.0818 29.0507C92.1072 29.0243 92.1325 28.9979 92.161 28.9753C92.332 28.8246 92.5061 28.674 92.6866 28.5383C93.0507 28.2596 93.4338 28.0222 93.8264 27.8075C94.2696 27.6041 94.7287 27.4496 95.1973 27.3517C95.4506 27.3253 95.7071 27.3215 95.9604 27.3404C96.1662 27.3856 96.3688 27.4496 96.5651 27.5363C96.6569 27.5928 96.7456 27.653 96.831 27.7209C96.888 27.7811 96.9482 27.8414 97.002 27.9092C97.0432 27.9582 97.078 28.0109 97.116 28.0637C97.1255 28.0787 97.1318 28.0938 97.1413 28.1089C97.2173 28.2483 97.2838 28.3952 97.344 28.5459C97.4326 28.8397 97.4991 29.1411 97.5466 29.4462C97.6226 30.3127 97.5941 31.1942 97.5118 32.0569C97.4136 32.8066 97.2553 33.5449 97.0273 34.2569C96.9292 34.5131 96.8215 34.7617 96.6981 35.0028C96.6348 35.1234 96.5651 35.2402 96.4986 35.3607C96.4606 35.4134 96.4194 35.47 96.3815 35.5227C96.2928 35.6395 96.1978 35.7487 96.1028 35.8542C96.2073 35.7525 96.1028 35.8806 96.0173 35.9484C96.011 35.9522 96.0047 35.9559 95.9983 35.9635C95.9667 35.9936 95.935 36.0237 95.9065 36.0576C95.9382 36.0237 95.9635 35.9974 95.9888 35.971C95.8464 36.0878 95.6944 36.1857 95.5424 36.2761C95.3271 36.3665 95.1087 36.4381 94.8839 36.4871C94.7002 36.5022 94.5166 36.5022 94.333 36.4871C94.0892 36.4344 93.8517 36.359 93.6206 36.2573C93.5066 36.1895 93.3926 36.1141 93.285 36.0313C93.266 36.0162 93.2375 35.9936 93.2058 35.9672C93.1552 35.9145 93.095 35.8542 93.0728 35.8278C93 35.745 92.9304 35.6583 92.8639 35.5717C92.8607 35.5679 92.8575 35.5641 92.8544 35.5604C92.7341 35.3343 92.6233 35.1121 92.5314 34.8672C92.3731 34.4491 91.9045 34.0874 91.5499 33.9706C91.1573 33.8425 90.6318 33.899 90.2835 34.1665C89.932 34.434 89.6249 34.8371 89.5299 35.3343C89.4255 35.8768 89.5046 36.3364 89.6946 36.8412C91.0022 40.3033 95.0263 41.4296 97.6194 39.369C99.0632 38.22 99.975 36.4155 100.44 34.4528C100.871 32.6107 100.979 30.6103 100.751 28.7116ZM54.6296 35.6847C54.6898 35.7374 54.75 35.7864 54.7436 35.7902C54.7341 35.7977 54.6835 35.745 54.6296 35.6847ZM77.7044 35.6847C77.7646 35.7374 77.8247 35.7864 77.8184 35.7902C77.8089 35.7977 77.7551 35.745 77.7044 35.6847Z" fill="#090129"/>
<path d="M96.0714 35.8769C96.0778 35.8693 96.0841 35.8618 96.0904 35.8542C96.0651 35.8769 96.0271 35.9183 95.9764 35.971C95.9796 35.9673 95.9828 35.9673 95.9859 35.9635C96.0144 35.9334 96.0429 35.907 96.0714 35.8769Z" fill="#090129"/>
<path d="M77.4734 35.4023C77.4608 35.3759 77.4481 35.3533 77.4354 35.3345C77.4449 35.3495 77.4513 35.3684 77.4608 35.3834C77.4671 35.391 77.4703 35.3947 77.4734 35.4023Z" fill="#090129"/>
<path d="M83.6309 34.1514C83.6217 34.1587 83.6156 34.166 83.6064 34.1732C83.6156 34.166 83.6248 34.1587 83.6309 34.1514Z" fill="#090129"/>
<path d="M12.5772 20.0133C13.8799 20.0133 14.9359 18.7567 14.9359 17.2067C14.9359 15.6567 13.8799 14.4001 12.5772 14.4001C11.2744 14.4001 10.2184 15.6567 10.2184 17.2067C10.2184 18.7567 11.2744 20.0133 12.5772 20.0133Z" fill="#090129"/>
<path d="M33.0052 22.3864C33.2078 22.3864 33.401 22.3525 33.5846 22.296L33.5941 22.3299C33.5941 22.3299 37.9602 21.9796 40.4994 22.3864V22.3789C40.5501 22.3826 40.5976 22.3864 40.6482 22.3864C41.6836 22.3864 42.5194 21.3881 42.5194 20.16C42.5194 18.9281 41.6804 17.9336 40.6482 17.9336C40.4899 17.9336 40.3348 17.96 40.1891 18.0052C39.3026 18.0654 35.4938 18.2952 33.1603 17.9336V17.9411C33.1097 17.9374 33.0558 17.9336 33.0052 17.9336C31.8685 17.9336 30.944 18.9319 30.944 20.16C30.944 21.3919 31.8685 22.3864 33.0052 22.3864Z" fill="#090129"/>
</svg>
