<svg width="96" height="40" viewBox="0 0 96 40" fill="none" xmlns="http://www.w3.org/2000/svg">
<path d="M20.1747 32.9409V29.9142C20.1747 29.5396 20.0579 29.2328 19.8221 28.9917C19.5864 28.7506 19.2922 28.631 18.9396 28.631C18.587 28.631 18.2928 28.7506 18.0571 28.9917C17.8213 29.2328 17.7045 29.5396 17.7045 29.9142V32.9409C17.7045 33.1242 17.64 33.2796 17.509 33.4071C17.3781 33.5366 17.2209 33.6004 17.0375 33.6004C16.8522 33.6004 16.695 33.5366 16.566 33.4071C16.4351 33.2776 16.3706 33.1222 16.3706 32.9409V28.1329C16.3706 27.9496 16.4351 27.7942 16.566 27.6667C16.697 27.5371 16.8542 27.4734 17.0375 27.4734C17.2229 27.4734 17.3801 27.5371 17.509 27.6667C17.64 27.7962 17.7045 27.9516 17.7045 28.1329V28.1708C18.1498 27.7065 18.6998 27.4734 19.3547 27.4734C19.7234 27.4734 20.07 27.5571 20.3943 27.7225C20.7167 27.8878 20.9746 28.121 21.1681 28.4198C21.7222 27.7882 22.3851 27.4734 23.1588 27.4734C23.7794 27.4734 24.2952 27.6746 24.7022 28.0771C25.1092 28.4796 25.3127 29.0136 25.3127 29.6771V32.9409C25.3127 33.1242 25.2482 33.2796 25.1173 33.4071C24.9863 33.5366 24.8291 33.6004 24.6458 33.6004C24.4604 33.6004 24.3032 33.5366 24.1743 33.4071C24.0433 33.2776 23.9788 33.1222 23.9788 32.9409V29.9142C23.9788 29.5396 23.862 29.2328 23.6262 28.9917C23.3905 28.7506 23.0983 28.631 22.7437 28.631C22.3911 28.631 22.0969 28.7506 21.8612 28.9917C21.6254 29.2328 21.5086 29.5396 21.5086 29.9142V32.9409C21.5086 33.1242 21.4441 33.2796 21.3131 33.4071C21.1822 33.5366 21.025 33.6004 20.8417 33.6004C20.6563 33.6004 20.4991 33.5366 20.3702 33.4071C20.2392 33.2796 20.1747 33.1242 20.1747 32.9409Z" fill="white"/>
<path d="M27.6298 32.7177C27.0092 32.1279 26.6969 31.4026 26.6969 30.5379C26.6969 29.6751 27.0072 28.9479 27.6298 28.3581C28.2504 27.7683 29.016 27.4734 29.9227 27.4734C30.8295 27.4734 31.5931 27.7683 32.2157 28.3581C32.8363 28.9479 33.1486 29.6751 33.1486 30.5379C33.1486 31.4007 32.8383 32.1279 32.2157 32.7177C31.5951 33.3075 30.8295 33.6024 29.9227 33.6024C29.016 33.6024 28.2504 33.3075 27.6298 32.7177ZM28.5748 29.2188C28.2141 29.5675 28.0328 30.0079 28.0328 30.5399C28.0328 31.0719 28.2141 31.5122 28.5748 31.8609C28.9354 32.2096 29.3848 32.385 29.9227 32.385C30.4607 32.385 30.91 32.2096 31.2707 31.8609C31.6314 31.5122 31.8127 31.0719 31.8127 30.5399C31.8127 30.0079 31.6314 29.5675 31.2707 29.2188C30.91 28.8702 30.4607 28.6968 29.9227 28.6968C29.3848 28.6948 28.9354 28.8702 28.5748 29.2188Z" fill="white"/>
<path d="M38.3973 32.9409V29.9142C38.3973 29.5396 38.2804 29.2328 38.0447 28.9917C37.8089 28.7506 37.5147 28.631 37.1621 28.631C36.8095 28.631 36.5153 28.7506 36.2796 28.9917C36.0439 29.2328 35.927 29.5396 35.927 29.9142V32.9409C35.927 33.1242 35.8625 33.2796 35.7316 33.4071C35.6006 33.5366 35.4434 33.6004 35.2601 33.6004C35.0747 33.6004 34.9175 33.5366 34.7886 33.4071C34.6576 33.2776 34.5931 33.1222 34.5931 32.9409V28.1329C34.5931 27.9496 34.6576 27.7942 34.7886 27.6667C34.9196 27.5371 35.0767 27.4734 35.2601 27.4734C35.4454 27.4734 35.6026 27.5371 35.7316 27.6667C35.8625 27.7962 35.927 27.9516 35.927 28.1329V28.1708C36.3723 27.7065 36.9224 27.4734 37.5772 27.4734C37.9459 27.4734 38.2925 27.5571 38.6169 27.7225C38.9393 27.8878 39.1972 28.121 39.3906 28.4198C39.9447 27.7882 40.6076 27.4734 41.3813 27.4734C42.0019 27.4734 42.5177 27.6746 42.9247 28.0771C43.3317 28.4796 43.5352 29.0136 43.5352 29.6771V32.9409C43.5352 33.1242 43.4708 33.2796 43.3398 33.4071C43.2088 33.5366 43.0517 33.6004 42.8683 33.6004C42.6829 33.6004 42.5258 33.5366 42.3968 33.4071C42.2659 33.2776 42.2014 33.1222 42.2014 32.9409V29.9142C42.2014 29.5396 42.0845 29.2328 41.8488 28.9917C41.613 28.7506 41.3209 28.631 40.9663 28.631C40.6136 28.631 40.3195 28.7506 40.0837 28.9917C39.848 29.2328 39.7311 29.5396 39.7311 29.9142V32.9409C39.7311 33.1242 39.6666 33.2796 39.5357 33.4071C39.4047 33.5366 39.2475 33.6004 39.0642 33.6004C38.8788 33.6004 38.7217 33.5366 38.5927 33.4071C38.4638 33.2796 38.3973 33.1242 38.3973 32.9409Z" fill="white"/>
<path d="M47.013 27.6229H47.9963C48.1635 27.6229 48.3086 27.6827 48.4315 27.8042C48.5524 27.9238 48.6149 28.0672 48.6149 28.2346C48.6149 28.4 48.5544 28.5434 48.4315 28.665C48.3106 28.7845 48.1656 28.8463 47.9963 28.8463H47.013V32.9409C47.013 33.1243 46.9486 33.2797 46.8176 33.4072C46.6866 33.5367 46.5295 33.6005 46.3461 33.6005C46.1607 33.6005 46.0036 33.5367 45.8746 33.4072C45.7437 33.2777 45.6792 33.1223 45.6792 32.9409V28.8443H45.1875C45.0203 28.8443 44.8752 28.7845 44.7523 28.663C44.6314 28.5434 44.569 28.4 44.569 28.2326C44.569 28.0672 44.6294 27.9238 44.7523 27.8022C44.8732 27.6827 45.0183 27.6209 45.1875 27.6209H45.6792V26.4872C45.6792 26.3038 45.7437 26.1484 45.8746 26.0209C46.0056 25.8914 46.1628 25.8276 46.3461 25.8276C46.5315 25.8276 46.6886 25.8914 46.8176 26.0209C46.9486 26.1504 47.013 26.3058 47.013 26.4872V27.6229Z" fill="white"/>
<path d="M54.4681 28.4457V28.1349C54.4681 27.9516 54.5326 27.7962 54.6636 27.6687C54.7946 27.5391 54.9517 27.4754 55.1351 27.4754C55.3204 27.4754 55.4776 27.5391 55.6066 27.6687C55.7375 27.7982 55.802 27.9536 55.802 28.1349V32.9409C55.802 33.1242 55.7375 33.2796 55.6066 33.4071C55.4756 33.5366 55.3184 33.6004 55.1351 33.6004C54.9497 33.6004 54.7925 33.5366 54.6636 33.4071C54.5326 33.2776 54.4681 33.1222 54.4681 32.9409V32.63C53.9402 33.2776 53.2088 33.6024 52.2759 33.6024C51.4357 33.6024 50.7225 33.3075 50.1341 32.7177C49.5458 32.1279 49.2516 31.4026 49.2516 30.5379C49.2516 29.6751 49.5458 28.9479 50.1341 28.3581C50.7225 27.7683 51.4357 27.4734 52.2759 27.4734C53.2088 27.4734 53.9402 27.7982 54.4681 28.4457ZM53.8637 31.8948C54.2425 31.5202 54.4299 31.0679 54.4299 30.5379C54.4299 30.0059 54.2405 29.5556 53.8637 29.187C53.4849 28.8183 53.0315 28.633 52.5036 28.633C51.9757 28.633 51.5204 28.8183 51.1436 29.187C50.7648 29.5556 50.5774 30.0079 50.5774 30.5379C50.5774 31.0699 50.7668 31.5202 51.1436 31.8888C51.5224 32.2574 51.9757 32.4427 52.5036 32.4427C53.0335 32.4427 53.4869 32.2614 53.8637 31.8948Z" fill="white"/>
<path d="M57.0514 33.2159C57.0514 33.166 57.0675 33.1122 57.1018 33.0545L59.5196 28.8443H57.946C57.7788 28.8443 57.6337 28.7845 57.5108 28.6629C57.3899 28.5434 57.3274 28.3999 57.3274 28.2326C57.3274 28.0672 57.3879 27.9237 57.5108 27.8022C57.6317 27.6826 57.7768 27.6208 57.946 27.6208H61.333C61.3995 27.6208 61.458 27.6448 61.5104 27.6966C61.5607 27.7464 61.5869 27.8042 61.5869 27.8719C61.5869 27.9217 61.5748 27.9675 61.5486 28.0094L59.0542 32.2316H61.2585C61.4257 32.2316 61.5708 32.2913 61.6937 32.4129C61.8146 32.5324 61.8771 32.6759 61.8771 32.8433C61.8771 33.0086 61.8166 33.1521 61.6937 33.2736C61.5728 33.3932 61.4277 33.455 61.2585 33.455H57.3033C57.134 33.453 57.0514 33.3733 57.0514 33.2159Z" fill="white"/>
<path d="M40.4139 19.5811C40.4081 19.5849 40.4022 19.5888 40.3983 19.5946C40.4042 19.5888 40.4081 19.5849 40.4139 19.5811Z" fill="white"/>
<path d="M48.3288 20.4936C48.3328 20.4897 48.3368 20.4857 48.3408 20.4817C48.3247 20.4936 48.3005 20.5156 48.2683 20.5435C48.2703 20.5415 48.2723 20.5415 48.2744 20.5395C48.2945 20.5235 48.3126 20.5096 48.3288 20.4936Z" fill="white"/>
<path d="M36.4951 20.2424C36.4871 20.2285 36.479 20.2185 36.4709 20.2065C36.477 20.2145 36.481 20.2245 36.4871 20.2324C36.4891 20.2364 36.4931 20.2384 36.4951 20.2424Z" fill="white"/>
<path d="M11.1318 15.0441C11.1036 14.5041 10.6724 13.9841 10.0861 14.01C9.54407 14.0339 9.01012 14.4663 9.04034 15.0441C9.06855 15.586 9.08265 16.13 9.09071 16.674C9.11086 17.8994 9.09676 19.1268 9.02624 20.3522C8.98594 21.0774 8.92348 21.8027 8.83079 22.522C8.71997 23.2931 8.57289 24.0742 8.28879 24.8035C8.20416 24.9848 8.10946 25.1581 7.99663 25.3255C7.95834 25.3693 7.92006 25.4132 7.87775 25.455C7.8032 25.5307 7.72059 25.5965 7.64201 25.6662C7.6279 25.6762 7.6138 25.6862 7.59969 25.6961C7.54126 25.734 7.48081 25.7718 7.42037 25.8057C7.34783 25.8476 7.27529 25.8834 7.20074 25.9193C7.00731 25.991 6.80784 26.0448 6.60433 26.0807C6.38269 26.1006 6.15904 26.0986 5.93539 26.0767C5.68353 26.0528 5.36719 26.2102 5.19592 26.3796C5.01458 26.5589 4.87757 26.8538 4.88966 27.1108C4.90175 27.3778 4.9904 27.6548 5.19592 27.8421C5.41152 28.0373 5.64524 28.117 5.93539 28.1449C7.54327 28.3043 9.28011 27.4635 10.0176 26.0149C10.479 25.1083 10.6946 24.1041 10.8417 23.1058C11.162 20.928 11.2184 18.7203 11.1781 16.5225C11.1701 16.0304 11.158 15.5362 11.1318 15.0441Z" fill="white"/>
<path d="M65.9913 16.7038C65.8563 15.7752 65.3626 14.9503 64.5808 14.4163C63.8091 13.8903 62.8359 13.8445 61.9413 13.98C61.0467 14.1175 60.1642 14.5339 59.4449 15.0699C58.7054 15.6198 58.0848 16.2634 57.5005 16.9688C56.9605 17.6203 56.4467 18.2938 55.8503 18.8975C55.7032 19.047 55.5521 19.1904 55.397 19.3279C55.3184 19.3976 55.2378 19.4654 55.1572 19.5311C55.137 19.5471 55.1189 19.563 55.0987 19.577C55.133 19.5511 55.1632 19.5272 55.1572 19.5331C55.139 19.5551 55.1088 19.571 55.0826 19.5889C55.0685 19.5989 55.0564 19.6108 55.0423 19.6208C54.998 19.6567 55.0363 19.6248 55.0826 19.5889C55.0766 19.5929 55.0705 19.5969 55.0665 19.5989C54.8288 19.7702 54.5749 19.9177 54.3129 20.0492C54.2041 20.103 54.0933 20.1528 53.9825 20.2006C53.5392 20.376 53.0798 20.5075 52.6104 20.5812C52.3666 20.6051 52.1207 20.6091 51.8749 20.5852C51.754 20.5613 51.6372 20.5294 51.5203 20.4896C51.4619 20.4617 51.4054 20.4298 51.351 20.3959C51.3369 20.3859 51.3228 20.378 51.3087 20.368C51.2846 20.3441 51.2624 20.3222 51.2584 20.3182C51.2322 20.2923 51.206 20.2644 51.1818 20.2365C51.1959 20.2564 51.21 20.2764 51.2261 20.3042C51.21 20.2783 51.1919 20.2544 51.1737 20.2305C51.1737 20.2305 51.1737 20.2285 51.1717 20.2285C51.1616 20.2166 51.1496 20.2046 51.1395 20.1927C51.0931 20.1389 51.0609 20.0651 51.1576 20.2026C51.1133 20.1329 51.073 20.0592 51.0367 19.9854C51.0347 19.9815 51.0347 19.9775 51.0327 19.9735C51.0327 19.9735 51.0327 19.9735 51.0327 19.9715C51.0589 19.8938 51.0871 19.8161 51.1093 19.7364C51.3893 18.76 51.4578 17.702 51.3128 16.6998C51.1778 15.7713 50.6841 14.9463 49.9023 14.4124C49.1306 13.8863 48.1574 13.8405 47.2628 13.976C46.3682 14.1135 45.4857 14.5299 44.7664 15.0659C44.0269 15.6158 43.4063 16.2594 42.822 16.9648C42.282 17.6163 41.7682 18.2898 41.1718 18.8935C41.0247 19.043 40.8736 19.1864 40.7184 19.3239C40.6399 19.3937 40.5593 19.4614 40.4787 19.5272C40.4605 19.5431 40.4404 19.5571 40.4202 19.573C40.4545 19.5471 40.4847 19.5232 40.4787 19.5292C40.4605 19.5511 40.4303 19.567 40.4041 19.5849C40.39 19.5949 40.3779 19.6069 40.3638 19.6168C40.3195 19.6527 40.3578 19.6208 40.4041 19.5849C40.3981 19.5889 40.392 19.5929 40.388 19.5949C40.1502 19.7663 39.8964 19.9137 39.6344 20.0452C39.5256 20.099 39.4148 20.1488 39.304 20.1966C38.8607 20.372 38.4013 20.5035 37.9318 20.5772C37.688 20.6011 37.4422 20.6051 37.1964 20.5812C37.0755 20.5573 36.9587 20.5254 36.8418 20.4856C36.7834 20.4577 36.7269 20.4258 36.6725 20.3919C36.6584 20.382 36.6443 20.374 36.6302 20.364C36.606 20.3401 36.5839 20.3182 36.5798 20.3142C36.5537 20.2883 36.5275 20.2604 36.5033 20.2325C36.5174 20.2524 36.5315 20.2724 36.5476 20.3003C36.5315 20.2744 36.5134 20.2504 36.4952 20.2265C36.4952 20.2265 36.4952 20.2245 36.4932 20.2245C36.4831 20.2126 36.471 20.2006 36.461 20.1887C36.4146 20.1349 36.3824 20.0612 36.4791 20.1986C36.4428 20.1429 36.4086 20.0851 36.3784 20.0253C36.334 19.9037 36.2998 19.7782 36.2736 19.6507C36.2635 19.4813 36.2696 19.314 36.2857 19.1446C36.3481 18.758 36.4469 18.3795 36.5174 17.9949C36.6262 17.4071 36.6584 16.8711 36.5617 16.2793C36.5456 16.1757 36.4912 16.0701 36.4187 15.9725C36.3562 15.8769 36.2756 15.7952 36.1769 15.7254C36.1446 15.7015 36.1124 15.6796 36.0822 15.6617C35.8585 15.5321 35.5281 15.4764 35.2762 15.5581C35.244 15.568 35.2138 15.584 35.1815 15.5959C34.9619 15.6696 34.7664 15.8111 34.6516 16.0343C34.2607 16.7854 33.8577 17.5326 33.3943 18.242C33.2734 18.4273 33.1485 18.6106 33.0195 18.7899C32.9591 18.8736 32.8986 18.9533 32.8362 19.035C32.8019 19.0769 32.7677 19.1187 32.7334 19.1605C32.4654 19.4813 32.1753 19.7882 31.8529 20.0572C31.8227 20.0831 31.7864 20.109 31.7542 20.1349C31.6675 20.1966 31.5789 20.2564 31.4882 20.3102C31.3875 20.37 31.2827 20.4258 31.1779 20.4756C30.7669 20.625 30.3256 20.7028 29.8924 20.7645C28.8265 20.902 27.7506 20.9558 26.6766 20.9877C25.4254 21.0255 24.1721 21.0255 22.9209 21.0096C20.9543 20.9837 18.9918 20.8841 17.0253 20.8044C16.8379 20.7964 16.6465 20.7964 16.4571 20.7864V20.7844H16.4511C16.441 20.7426 16.4329 20.7008 16.4249 20.6589C16.3946 20.4059 16.3745 20.1528 16.3624 19.8978C16.3503 19.6089 16.3483 19.3199 16.3503 19.029C16.3523 18.7401 16.3584 18.4512 16.3644 18.1623C16.3664 18.0846 16.3664 18.0069 16.3684 17.9292C16.3946 16.0084 16.439 14.0876 16.4611 12.1668C16.4813 10.519 16.4893 8.87114 16.4914 7.22133C16.4914 6.68135 16.0098 6.16131 15.4456 6.18721C14.8794 6.21311 14.3999 6.6415 14.3999 7.22133C14.3999 9.44897 14.3818 11.6766 14.3455 13.9062C14.3233 15.3249 14.2891 16.7436 14.273 18.1623C14.2649 18.9453 14.2447 19.7344 14.3173 20.5155C14.3757 21.1531 14.4765 21.7608 14.9056 22.2649C15.2542 22.6734 15.774 22.7949 16.2858 22.8407C16.7775 22.8846 17.2792 22.8846 17.7728 22.9085C19.2739 22.9842 20.777 23.036 22.2801 23.0639C24.017 23.0958 25.7558 23.0998 27.4907 23.0221C28.2342 22.9882 28.9756 22.9404 29.7151 22.8527C30.3478 22.777 30.9966 22.6993 31.6071 22.51C32.4735 22.239 33.219 21.6871 33.8376 21.0395C34.0109 20.8602 34.1741 20.6709 34.3312 20.4796C34.4743 20.9399 34.7141 21.3683 35.0526 21.7269C35.9452 22.6674 37.3032 22.763 38.5142 22.5697C39.0018 22.492 39.4773 22.3486 39.9326 22.1633C40.4283 21.962 40.9159 21.7409 41.3572 21.44C42.4331 20.7047 43.2451 19.7165 44.0591 18.7182C44.4883 18.1922 44.9235 17.6681 45.4212 17.2019C45.5481 17.0843 45.6771 16.9688 45.8121 16.8592C45.8302 16.8452 45.8484 16.8313 45.8645 16.8173C45.9269 16.7715 45.9914 16.7257 46.0559 16.6818C46.3138 16.5085 46.5878 16.3571 46.8719 16.2275C47.1641 16.114 47.4643 16.0283 47.7746 15.9765C47.9358 15.9625 48.099 15.9605 48.2602 15.9705C48.3912 15.9944 48.5201 16.0283 48.645 16.0741C48.7035 16.104 48.7599 16.1359 48.8143 16.1717C48.8506 16.2036 48.8888 16.2355 48.9231 16.2714C48.9493 16.2973 48.9715 16.3252 48.9956 16.3531C49.0017 16.361 49.0057 16.369 49.0118 16.377C49.0601 16.4507 49.1024 16.5284 49.1407 16.6081C49.1971 16.7635 49.2394 16.9229 49.2697 17.0863C49.318 17.5446 49.2999 18.0109 49.2475 18.4671C49.185 18.8637 49.0843 19.2542 48.9392 19.6308C48.8768 19.7663 48.8082 19.8978 48.7297 20.0253C48.6894 20.0891 48.645 20.1508 48.6027 20.2146C48.5785 20.2425 48.5524 20.2724 48.5282 20.3003C48.4718 20.362 48.4113 20.4198 48.3509 20.4756C48.4174 20.4218 48.3509 20.4896 48.2965 20.5254C48.2924 20.5274 48.2884 20.5294 48.2844 20.5334C48.2642 20.5493 48.2441 20.5653 48.2259 20.5832C48.2461 20.5653 48.2622 20.5513 48.2783 20.5374C48.1877 20.5991 48.0909 20.6509 47.9942 20.6988C47.8572 20.7466 47.7182 20.7844 47.5751 20.8103C47.4583 20.8183 47.3414 20.8183 47.2245 20.8103C47.0694 20.7825 46.9183 20.7426 46.7712 20.6888C46.6986 20.6529 46.6261 20.6131 46.5576 20.5693C46.5455 20.5613 46.5274 20.5493 46.5072 20.5354C46.475 20.5075 46.4367 20.4756 46.4226 20.4617C46.3763 20.4178 46.3319 20.372 46.2896 20.3262C46.2876 20.3242 46.2856 20.3222 46.2836 20.3202C46.207 20.2006 46.1365 20.0831 46.0781 19.9536C45.9773 19.7324 45.6791 19.5411 45.4534 19.4793C45.2036 19.4116 44.8691 19.4415 44.6475 19.583C44.4238 19.7244 44.2284 19.9376 44.1679 20.2006C44.1015 20.4876 44.1518 20.7306 44.2727 20.9976C45.1049 22.8288 47.6658 23.4245 49.316 22.3346C49.5235 22.1971 49.7129 22.0397 49.8862 21.8704C49.9084 21.8883 49.9285 21.9102 49.9507 21.9282C50.3698 22.2589 50.8473 22.504 51.3813 22.5937C52.3847 22.763 53.4123 22.6156 54.3633 22.2689C55.3446 21.9102 56.1989 21.4121 56.9706 20.7107C57.7665 19.9874 58.4052 19.1227 59.0903 18.3038C59.4691 17.8514 59.866 17.4111 60.3133 17.0206C60.3657 16.9747 60.4201 16.9289 60.4745 16.8831C60.4906 16.8691 60.5067 16.8552 60.5249 16.8432C60.6337 16.7635 60.7445 16.6838 60.8593 16.6121C61.091 16.4647 61.3348 16.3391 61.5847 16.2255C61.8668 16.118 62.1589 16.0363 62.4571 15.9845C62.6183 15.9705 62.7815 15.9685 62.9427 15.9785C63.0737 16.0024 63.2027 16.0363 63.3276 16.0821C63.386 16.112 63.4424 16.1439 63.4968 16.1797C63.5331 16.2116 63.5714 16.2435 63.6056 16.2793C63.6318 16.3052 63.654 16.3331 63.6782 16.361C63.6842 16.369 63.6882 16.377 63.6943 16.385C63.7426 16.4587 63.785 16.5364 63.8232 16.6161C63.8797 16.7715 63.922 16.9309 63.9522 17.0923C64.0006 17.5506 63.9824 18.0168 63.93 18.4731C63.8676 18.8696 63.7668 19.2602 63.6217 19.6368C63.5593 19.7722 63.4908 19.9038 63.4122 20.0313C63.3719 20.095 63.3276 20.1568 63.2853 20.2206C63.2611 20.2485 63.2349 20.2783 63.2107 20.3062C63.1543 20.368 63.0938 20.4258 63.0334 20.4816C63.0999 20.4278 63.0334 20.4955 62.979 20.5314C62.975 20.5334 62.9709 20.5354 62.9669 20.5394C62.9468 20.5553 62.9266 20.5712 62.9085 20.5892C62.9286 20.5712 62.9447 20.5573 62.9609 20.5434C62.8702 20.6051 62.7735 20.6569 62.6768 20.7047C62.5397 20.7526 62.4007 20.7904 62.2577 20.8163C62.1408 20.8243 62.0239 20.8243 61.9071 20.8163C61.7519 20.7884 61.6008 20.7486 61.4537 20.6948C61.3812 20.6589 61.3087 20.6191 61.2401 20.5752C61.2281 20.5673 61.2099 20.5553 61.1898 20.5414C61.1575 20.5135 61.1193 20.4816 61.1051 20.4676C61.0588 20.4238 61.0145 20.378 60.9722 20.3321C60.9701 20.3302 60.9681 20.3282 60.9661 20.3262C60.8896 20.2066 60.819 20.0891 60.7606 19.9595C60.6599 19.7384 60.3617 19.5471 60.136 19.4853C59.8861 19.4176 59.5517 19.4475 59.33 19.5889C59.1064 19.7304 58.9109 19.9436 58.8505 20.2066C58.784 20.4935 58.8344 20.7366 58.9553 21.0036C59.7874 22.8348 62.3483 23.4305 63.9985 22.3406C64.9173 21.7329 65.4976 20.7785 65.7938 19.7404C66.0678 18.766 66.1363 17.708 65.9913 16.7038ZM36.6403 20.3919C36.6786 20.4198 36.7169 20.4457 36.7128 20.4477C36.7068 20.4517 36.6746 20.4238 36.6403 20.3919ZM51.3248 20.3919C51.3631 20.4198 51.4014 20.4457 51.3974 20.4477C51.3913 20.4517 51.3571 20.4238 51.3248 20.3919Z" fill="white"/>
<path d="M63.0133 20.4936C63.0174 20.4897 63.0214 20.4857 63.0254 20.4817C63.0093 20.4936 62.9851 20.5156 62.9529 20.5435C62.9549 20.5415 62.9569 20.5415 62.9589 20.5395C62.9771 20.5235 62.9952 20.5096 63.0133 20.4936Z" fill="white"/>
<path d="M51.1777 20.2424C51.1697 20.2285 51.1616 20.2165 51.1536 20.2065C51.1596 20.2145 51.1636 20.2245 51.1697 20.2324C51.1737 20.2364 51.1757 20.2384 51.1777 20.2424Z" fill="white"/>
<path d="M55.0964 19.5811C55.0906 19.5849 55.0867 19.5888 55.0808 19.5926C55.0867 19.5888 55.0925 19.5849 55.0964 19.5811Z" fill="white"/>
<path d="M9.87854 12.1031C10.7076 12.1031 11.3796 11.4385 11.3796 10.6187C11.3796 9.79888 10.7076 9.13428 9.87854 9.13428C9.04951 9.13428 8.37744 9.79888 8.37744 10.6187C8.37744 11.4385 9.04951 12.1031 9.87854 12.1031Z" fill="white"/>
<path d="M22.8787 13.3583C23.0077 13.3583 23.1306 13.3404 23.2474 13.3105L23.2535 13.3285C23.2535 13.3285 26.032 13.1431 27.648 13.3583V13.3544C27.6802 13.3563 27.7104 13.3583 27.7427 13.3583C28.4015 13.3583 28.9335 12.8303 28.9335 12.1808C28.9335 11.5292 28.3995 11.0032 27.7427 11.0032C27.6419 11.0032 27.5432 11.0171 27.4505 11.041C26.8863 11.0729 24.4624 11.1945 22.9774 11.0032V11.0072C22.9452 11.0052 22.911 11.0032 22.8787 11.0032C22.1554 11.0032 21.567 11.5312 21.567 12.1808C21.567 12.8323 22.1554 13.3583 22.8787 13.3583Z" fill="white"/>
<path d="M89.7921 13.2528C89.5691 12.0635 89.338 10.8344 89.1793 9.44988C89.119 8.91799 88.6367 8.5355 88.1002 8.59526C87.5637 8.65503 87.1779 9.13512 87.2382 9.66503C87.403 11.1173 87.6401 12.3823 87.8712 13.6054C88.2288 15.5119 88.5684 17.3128 88.5584 19.528C88.5463 22.3648 88.3072 25.594 86.6334 28.0244C85.0661 30.3014 81.843 31.399 78.8571 31.399C77.6755 31.399 76.5302 31.2277 75.5416 30.8871C74.5027 30.5305 73.6769 29.9129 73.2147 29.1479C73.062 28.8969 72.9434 28.624 72.851 28.3172C72.6882 27.7754 72.63 27.1937 72.6038 26.5801C73.5081 27.2694 74.6132 27.5523 75.6541 27.357C78.3869 26.8411 80.0466 24.2354 79.9863 20.5559C79.9281 17.008 78.2 12.9779 75.1136 12.4998C74.9649 12.4759 73.6306 12.3026 72.419 13.2767C71.362 14.1274 70.7753 15.5418 70.6748 17.4821C70.6467 18.016 71.0626 18.4722 71.6012 18.4981C72.1397 18.526 72.5998 18.1136 72.626 17.5797C72.6943 16.249 73.0399 15.2868 73.6266 14.7987C74.1752 14.3405 74.7981 14.4122 74.8102 14.4122C76.5061 14.6752 77.983 17.504 78.0332 20.5878C78.0493 21.6058 77.9006 24.9625 75.2884 25.4546C74.786 25.5502 74.2093 25.3828 73.7452 25.0083C72.9836 24.3947 72.5335 23.2592 72.4692 21.797C72.4672 21.7233 72.4652 21.6476 72.4632 21.5739C72.4471 21.042 71.997 20.6177 71.4625 20.6356C70.926 20.6476 70.5 21.0878 70.5101 21.6217C70.5121 21.7094 70.5141 21.795 70.5181 21.8807C70.5302 22.2492 70.5422 22.6158 70.5543 22.9843C70.5784 23.6875 70.6005 24.3908 70.6186 25.094C70.6246 25.2912 70.6266 25.4904 70.6286 25.6896C70.6427 26.7315 70.6588 27.8092 70.9783 28.873C70.9783 28.873 70.9783 28.873 70.9783 28.875C71.1169 29.3392 71.2998 29.7555 71.5369 30.146C72.2341 31.3014 73.4297 32.2158 74.9026 32.7198C76.0921 33.1282 77.4465 33.3354 78.843 33.3334C82.4297 33.3334 86.2837 31.9648 88.2449 29.1181C90.2161 26.2554 90.4954 22.6696 90.5095 19.538C90.5236 17.1395 90.1679 15.2529 89.7921 13.2528Z" fill="white"/>
<path d="M81.2402 20.9064C81.1839 21.4383 81.5738 21.9144 82.1103 21.9702C82.1444 21.9741 82.1786 21.9761 82.2127 21.9761C82.707 21.9761 83.131 21.6056 83.1833 21.1096C83.991 13.4638 77.7378 5.17661 77.4706 4.82799C77.1451 4.40168 76.5322 4.31801 76.1022 4.64074C75.6722 4.96346 75.5878 5.57105 75.9133 5.99737C75.9736 6.07506 81.9676 14.0276 81.2402 20.9064Z" fill="white"/>
<path d="M84.7706 20.7471C84.7365 21.281 85.1444 21.7411 85.6829 21.775C85.703 21.777 85.7251 21.777 85.7452 21.777C86.2556 21.777 86.6856 21.3826 86.7197 20.8706C87.0854 15.1532 84.0151 7.40985 83.8845 7.08315C83.6856 6.58512 83.1169 6.34208 82.6166 6.54129C82.1142 6.73851 81.8691 7.30228 82.068 7.79832C82.1002 7.87402 85.1082 15.468 84.7706 20.7471Z" fill="white"/>
<path d="M87.7777 34.7241C87.3646 34.3113 87.1571 33.8118 87.1571 33.2277C87.1571 32.6437 87.3646 32.1442 87.7777 31.7314C88.1907 31.3185 88.6904 31.1111 89.2748 31.1111C89.8591 31.1111 90.3588 31.3185 90.7718 31.7314C91.1849 32.1442 91.3924 32.6437 91.3924 33.2277C91.3924 33.8118 91.1849 34.3113 90.7718 34.7241C90.3588 35.137 89.8591 35.3444 89.2748 35.3444C88.6904 35.3444 88.1907 35.137 87.7777 34.7241ZM88.0054 31.9469C87.6588 32.2973 87.4855 32.7243 87.4855 33.2277C87.4855 33.7312 87.6608 34.1582 88.0094 34.5106C88.358 34.8631 88.7811 35.0403 89.2768 35.0403C89.7724 35.0403 90.1935 34.8631 90.5441 34.5106C90.8927 34.1582 91.068 33.7292 91.068 33.2277C91.068 32.7243 90.8927 32.2973 90.5441 31.9449C90.1956 31.5924 89.7724 31.4152 89.2768 31.4152C88.7791 31.4152 88.356 31.5924 88.0054 31.9469ZM89.7906 33.2962L90.3285 34.0212C90.3568 34.0676 90.3688 34.1139 90.3688 34.1562C90.3688 34.2226 90.3467 34.279 90.3024 34.3233C90.258 34.3676 90.2016 34.3898 90.1351 34.3898C90.0525 34.3898 89.984 34.3475 89.9256 34.2609L89.2002 33.1673C89.1841 33.1432 89.176 33.1271 89.176 33.115C89.176 33.0727 89.1982 33.0505 89.2405 33.0505H89.3392C89.444 33.0505 89.5306 33.0264 89.5992 32.98C89.6677 32.9337 89.7019 32.8612 89.7019 32.7645C89.7019 32.5611 89.583 32.4604 89.3453 32.4604H89.0874V34.1501C89.0874 34.2166 89.0632 34.273 89.0168 34.3193C88.9705 34.3656 88.9141 34.3898 88.8476 34.3898C88.7811 34.3898 88.7247 34.3656 88.6783 34.3193C88.632 34.273 88.6078 34.2166 88.6078 34.1501V32.2792C88.6078 32.2288 88.626 32.1865 88.6602 32.1503C88.6945 32.116 88.7388 32.0979 88.7892 32.0979H89.3513C89.5891 32.0979 89.7825 32.1563 89.9296 32.2731C90.0787 32.3899 90.1512 32.5531 90.1512 32.7645C90.1532 33.0344 90.0324 33.2116 89.7906 33.2962Z" fill="white"/>
</svg>
