<svg width="147" height="64" viewBox="0 0 147 64" fill="none" xmlns="http://www.w3.org/2000/svg">
<path d="M141.375 20.1497C141.013 18.2046 140.637 16.1944 140.379 13.93C140.281 13.0601 139.498 12.4345 138.626 12.5323C137.754 12.63 137.127 13.4152 137.225 14.2819C137.493 16.657 137.878 18.7259 138.254 20.7264C138.835 23.8444 139.387 26.7898 139.37 30.4128C139.351 35.0523 138.962 40.3337 136.243 44.3086C133.696 48.0326 128.459 49.8278 123.607 49.8278C121.688 49.8278 119.827 49.5476 118.22 48.9905C116.533 48.4073 115.191 47.3973 114.44 46.1462C114.192 45.7356 113.999 45.2893 113.849 44.7875C113.584 43.9013 113.49 42.95 113.447 41.9465C114.916 43.0738 116.712 43.5364 118.403 43.2171C122.844 42.3733 125.54 38.1117 125.442 32.094C125.348 26.2913 122.54 19.7001 117.525 18.9182C117.283 18.8791 115.116 18.5956 113.147 20.1888C111.43 21.58 110.476 23.8933 110.313 27.0667C110.267 27.9399 110.943 28.686 111.818 28.7283C112.693 28.7739 113.441 28.0995 113.483 27.2263C113.594 25.0499 114.156 23.4763 115.109 22.678C116 21.9287 117.012 22.0459 117.032 22.0459C119.788 22.476 122.187 27.1025 122.269 32.1461C122.295 33.811 122.053 39.3009 117.809 40.1056C116.993 40.262 116.056 39.9883 115.302 39.3758C114.064 38.3723 113.333 36.5152 113.228 34.1237C113.225 34.0032 113.222 33.8794 113.219 33.7588C113.193 32.8889 112.461 32.1949 111.593 32.2243C110.721 32.2438 110.029 32.9639 110.045 33.837C110.048 33.9804 110.052 34.1205 110.058 34.2606C110.078 34.8633 110.097 35.4628 110.117 36.0656C110.156 37.2157 110.192 38.3658 110.222 39.5159C110.231 39.8385 110.235 40.1643 110.238 40.4901C110.261 42.1941 110.287 43.9567 110.806 45.6965C110.806 45.6965 110.806 45.6965 110.806 45.6998C111.031 46.4589 111.328 47.1399 111.714 47.7785C112.846 49.6682 114.789 51.1636 117.182 51.9879C119.115 52.6559 121.316 52.9947 123.585 52.9914C129.412 52.9914 135.674 50.7531 138.861 46.0973C142.064 41.4154 142.518 35.5508 142.54 30.4291C142.563 26.5063 141.985 23.4209 141.375 20.1497Z" fill="#D5F379"/>
<path d="M127.48 32.6673C127.388 33.5372 128.022 34.3159 128.893 34.4071C128.949 34.4136 129.004 34.4169 129.06 34.4169C129.863 34.4169 130.552 33.8109 130.637 32.9996C131.949 20.495 121.789 6.94129 121.355 6.37113C120.826 5.67389 119.83 5.53705 119.131 6.06486C118.433 6.59268 118.296 7.5864 118.825 8.28363C118.923 8.4107 128.662 21.4171 127.48 32.6673Z" fill="#D5F379"/>
<path d="M133.216 32.4067C133.16 33.2799 133.823 34.0325 134.698 34.0879C134.731 34.0912 134.767 34.0912 134.799 34.0912C135.629 34.0912 136.327 33.4461 136.383 32.6087C136.977 23.258 131.988 10.5937 131.776 10.0594C131.453 9.24485 130.529 8.84736 129.716 9.17317C128.9 9.49573 128.501 10.4178 128.825 11.229C128.877 11.3528 133.764 23.7727 133.216 32.4067Z" fill="#D5F379"/>
<path d="M138.025 57.253C137.356 56.5851 137.02 55.7771 137.02 54.8322C137.02 53.8874 137.356 53.0794 138.025 52.4115C138.695 51.7435 139.504 51.408 140.451 51.408C141.398 51.408 142.208 51.7435 142.877 52.4115C143.546 53.0794 143.883 53.8874 143.883 54.8322C143.883 55.7771 143.546 56.5851 142.877 57.253C142.208 57.9209 141.398 58.2565 140.451 58.2565C139.504 58.2565 138.695 57.9209 138.025 57.253ZM138.394 52.7601C137.833 53.327 137.552 54.0177 137.552 54.8322C137.552 55.6468 137.836 56.3375 138.401 56.9076C138.966 57.4778 139.651 57.7645 140.454 57.7645C141.258 57.7645 141.94 57.4778 142.508 56.9076C143.073 56.3375 143.357 55.6435 143.357 54.8322C143.357 54.0177 143.073 53.327 142.508 52.7568C141.943 52.1866 141.258 51.8999 140.454 51.8999C139.648 51.8999 138.962 52.1866 138.394 52.7601ZM141.287 54.943L142.159 56.1159C142.204 56.1909 142.224 56.2658 142.224 56.3342C142.224 56.4417 142.188 56.533 142.116 56.6046C142.044 56.6763 141.953 56.7122 141.845 56.7122C141.711 56.7122 141.6 56.6437 141.506 56.5036L140.33 54.7345C140.304 54.6954 140.291 54.6693 140.291 54.6498C140.291 54.5814 140.327 54.5455 140.396 54.5455H140.556C140.725 54.5455 140.866 54.5064 140.977 54.4315C141.088 54.3565 141.143 54.2393 141.143 54.0829C141.143 53.7538 140.951 53.5909 140.565 53.5909H140.148V56.3244C140.148 56.432 140.108 56.5232 140.033 56.5981C139.958 56.6731 139.867 56.7122 139.759 56.7122C139.651 56.7122 139.56 56.6731 139.485 56.5981C139.41 56.5232 139.37 56.432 139.37 56.3244V53.2977C139.37 53.2162 139.4 53.1478 139.455 53.0891C139.511 53.0338 139.583 53.0044 139.664 53.0044H140.575C140.96 53.0044 141.274 53.0989 141.512 53.2879C141.754 53.4769 141.871 53.7408 141.871 54.0829C141.875 54.5194 141.679 54.8062 141.287 54.943Z" fill="#D5F379"/>
<path d="M28.1786 51.3819V46.4328C28.1786 45.8203 27.9892 45.3186 27.6072 44.9243C27.2253 44.5301 26.7486 44.3346 26.1772 44.3346C25.6059 44.3346 25.1292 44.5301 24.7472 44.9243C24.3652 45.3186 24.1759 45.8203 24.1759 46.4328V51.3819C24.1759 51.6816 24.0714 51.9358 23.8592 52.1443C23.647 52.3561 23.3923 52.4603 23.0952 52.4603C22.7948 52.4603 22.5402 52.3561 22.3312 52.1443C22.119 51.9325 22.0145 51.6784 22.0145 51.3819V43.5201C22.0145 43.2203 22.119 42.9662 22.3312 42.7577C22.5434 42.5459 22.7981 42.4417 23.0952 42.4417C23.3956 42.4417 23.6502 42.5459 23.8592 42.7577C24.0714 42.9695 24.1759 43.2236 24.1759 43.5201V43.582C24.8974 42.8228 25.7887 42.4417 26.8498 42.4417C27.4473 42.4417 28.0088 42.5785 28.5345 42.8489C29.0568 43.1193 29.4748 43.5005 29.7882 43.9893C30.686 42.9564 31.7602 42.4417 33.0139 42.4417C34.0195 42.4417 34.8553 42.7707 35.5148 43.4289C36.1743 44.087 36.504 44.9602 36.504 46.0451V51.3819C36.504 51.6816 36.3995 51.9358 36.1873 52.1443C35.9751 52.3561 35.7205 52.4603 35.4233 52.4603C35.123 52.4603 34.8683 52.3561 34.6594 52.1443C34.4472 51.9325 34.3427 51.6784 34.3427 51.3819V46.4328C34.3427 45.8203 34.1533 45.3186 33.7713 44.9243C33.3893 44.5301 32.9159 44.3346 32.3413 44.3346C31.77 44.3346 31.2933 44.5301 30.9113 44.9243C30.5293 45.3186 30.3399 45.8203 30.3399 46.4328V51.3819C30.3399 51.6816 30.2355 51.9358 30.0233 52.1443C29.811 52.3561 29.5564 52.4603 29.2593 52.4603C28.9589 52.4603 28.7042 52.3561 28.4953 52.1443C28.2831 51.9358 28.1786 51.6816 28.1786 51.3819Z" fill="#D5F379"/>
<path d="M40.2587 51.017C39.2531 50.0526 38.7471 48.8666 38.7471 47.4526C38.7471 46.0419 39.2499 44.8526 40.2587 43.8883C41.2643 42.9239 42.5049 42.4417 43.9741 42.4417C45.4433 42.4417 46.6807 42.9239 47.6896 43.8883C48.6951 44.8526 49.2012 46.0419 49.2012 47.4526C49.2012 48.8634 48.6984 50.0526 47.6896 51.017C46.684 51.9814 45.4433 52.4636 43.9741 52.4636C42.5049 52.4636 41.2643 51.9814 40.2587 51.017ZM41.7899 45.2958C41.2055 45.8659 40.9117 46.586 40.9117 47.4559C40.9117 48.3258 41.2055 49.0458 41.7899 49.616C42.3743 50.1862 43.1024 50.4729 43.9741 50.4729C44.8459 50.4729 45.5739 50.1862 46.1583 49.616C46.7427 49.0458 47.0366 48.3258 47.0366 47.4559C47.0366 46.586 46.7427 45.8659 46.1583 45.2958C45.5739 44.7256 44.8459 44.4421 43.9741 44.4421C43.1024 44.4389 42.3743 44.7256 41.7899 45.2958Z" fill="#D5F379"/>
<path d="M57.7062 51.3819V46.4328C57.7062 45.8203 57.5168 45.3186 57.1348 44.9243C56.7528 44.5301 56.2762 44.3346 55.7048 44.3346C55.1335 44.3346 54.6568 44.5301 54.2748 44.9243C53.8928 45.3186 53.7035 45.8203 53.7035 46.4328V51.3819C53.7035 51.6816 53.599 51.9358 53.3868 52.1443C53.1746 52.3561 52.9199 52.4603 52.6228 52.4603C52.3224 52.4603 52.0678 52.3561 51.8588 52.1443C51.6466 51.9325 51.5421 51.6784 51.5421 51.3819V43.5201C51.5421 43.2203 51.6466 42.9662 51.8588 42.7577C52.071 42.5459 52.3257 42.4417 52.6228 42.4417C52.9232 42.4417 53.1778 42.5459 53.3868 42.7577C53.599 42.9695 53.7035 43.2236 53.7035 43.5201V43.582C54.425 42.8228 55.3163 42.4417 56.3774 42.4417C56.9749 42.4417 57.5364 42.5785 58.0621 42.8489C58.5844 43.1193 59.0023 43.5005 59.3158 43.9893C60.2136 42.9564 61.2878 42.4417 62.5415 42.4417C63.547 42.4417 64.3829 42.7707 65.0424 43.4289C65.7019 44.087 66.0316 44.9602 66.0316 46.0451V51.3819C66.0316 51.6816 65.9271 51.9358 65.7149 52.1443C65.5027 52.3561 65.248 52.4603 64.9509 52.4603C64.6506 52.4603 64.3959 52.3561 64.187 52.1443C63.9747 51.9325 63.8703 51.6784 63.8703 51.3819V46.4328C63.8703 45.8203 63.6809 45.3186 63.2989 44.9243C62.9169 44.5301 62.4435 44.3346 61.8689 44.3346C61.2975 44.3346 60.8209 44.5301 60.4389 44.9243C60.0569 45.3186 59.8675 45.8203 59.8675 46.4328V51.3819C59.8675 51.6816 59.7631 51.9358 59.5508 52.1443C59.3386 52.3561 59.084 52.4603 58.7869 52.4603C58.4865 52.4603 58.2318 52.3561 58.0229 52.1443C57.8139 51.9358 57.7062 51.6816 57.7062 51.3819Z" fill="#D5F379"/>
<path d="M71.6668 42.686H73.2601C73.5311 42.686 73.7661 42.7838 73.9653 42.9825C74.1612 43.178 74.2624 43.4126 74.2624 43.6863C74.2624 43.9567 74.1645 44.1913 73.9653 44.39C73.7694 44.5855 73.5343 44.6865 73.2601 44.6865H71.6668V51.3819C71.6668 51.6817 71.5624 51.9358 71.3501 52.1443C71.1379 52.3561 70.8833 52.4604 70.5862 52.4604C70.2858 52.4604 70.0311 52.3561 69.8222 52.1443C69.61 51.9325 69.5055 51.6784 69.5055 51.3819V44.6833H68.7089C68.4379 44.6833 68.2028 44.5855 68.0036 44.3868C67.8078 44.1913 67.7065 43.9567 67.7065 43.683C67.7065 43.4126 67.8045 43.178 68.0036 42.9793C68.1995 42.7838 68.4346 42.6828 68.7089 42.6828H69.5055V40.8289C69.5055 40.5292 69.61 40.275 69.8222 40.0665C70.0344 39.8547 70.2891 39.7505 70.5862 39.7505C70.8865 39.7505 71.1412 39.8547 71.3501 40.0665C71.5624 40.2783 71.6668 40.5324 71.6668 40.8289V42.686Z" fill="#D5F379"/>
<path d="M83.7467 44.0316V43.5233C83.7467 43.2236 83.8512 42.9695 84.0634 42.7609C84.2756 42.5492 84.5303 42.4449 84.8274 42.4449C85.1277 42.4449 85.3824 42.5492 85.5913 42.7609C85.8036 42.9727 85.908 43.2269 85.908 43.5233V51.3819C85.908 51.6816 85.8036 51.9358 85.5913 52.1443C85.3791 52.3561 85.1245 52.4603 84.8274 52.4603C84.527 52.4603 84.2723 52.3561 84.0634 52.1443C83.8512 51.9325 83.7467 51.6784 83.7467 51.3819V50.8736C82.8913 51.9325 81.7061 52.4636 80.1945 52.4636C78.8331 52.4636 77.6773 51.9814 76.7239 51.017C75.7706 50.0526 75.2939 48.8666 75.2939 47.4526C75.2939 46.0419 75.7706 44.8526 76.7239 43.8883C77.6773 42.9239 78.8331 42.4417 80.1945 42.4417C81.7061 42.4417 82.8913 42.9727 83.7467 44.0316ZM82.7672 49.6714C83.381 49.0589 83.6847 48.3193 83.6847 47.4526C83.6847 46.5827 83.3778 45.8464 82.7672 45.2436C82.1534 44.6409 81.4188 44.3379 80.5634 44.3379C79.708 44.3379 78.9702 44.6409 78.3597 45.2436C77.7459 45.8464 77.4422 46.586 77.4422 47.4526C77.4422 48.3225 77.7491 49.0589 78.3597 49.6616C78.9734 50.2644 79.708 50.5674 80.5634 50.5674C81.4221 50.5674 82.1567 50.2709 82.7672 49.6714Z" fill="#D5F379"/>
<path d="M87.9324 51.8316C87.9324 51.7502 87.9585 51.6622 88.014 51.5677L91.9318 44.6833H89.382C89.111 44.6833 88.8759 44.5856 88.6768 44.3868C88.4809 44.1914 88.3797 43.9568 88.3797 43.6831C88.3797 43.4127 88.4776 43.1781 88.6768 42.9794C88.8727 42.7839 89.1077 42.6829 89.382 42.6829H94.8702C94.978 42.6829 95.0726 42.722 95.1575 42.8067C95.2392 42.8881 95.2816 42.9826 95.2816 43.0934C95.2816 43.1748 95.262 43.2498 95.2196 43.3182L91.1777 50.2221H94.7494C95.0204 50.2221 95.2555 50.3199 95.4546 50.5186C95.6505 50.7141 95.7517 50.9487 95.7517 51.2224C95.7517 51.4928 95.6538 51.7274 95.4546 51.9261C95.2587 52.1216 95.0237 52.2226 94.7494 52.2226H88.3405C88.0662 52.2193 87.9324 52.089 87.9324 51.8316Z" fill="#D5F379"/>
<path d="M60.9744 29.5364C60.9646 29.5429 60.9548 29.5494 60.9482 29.5592C60.958 29.5494 60.9646 29.5429 60.9744 29.5364Z" fill="#D5F379"/>
<path d="M73.7987 31.0286C73.8053 31.0221 73.8118 31.0155 73.8183 31.009C73.7922 31.0286 73.753 31.0644 73.7008 31.11C73.7041 31.1068 73.7073 31.1068 73.7106 31.1035C73.7432 31.0775 73.7726 31.0546 73.7987 31.0286Z" fill="#D5F379"/>
<path d="M54.624 30.618C54.611 30.5952 54.5979 30.5789 54.5848 30.5593C54.5946 30.5724 54.6012 30.5887 54.611 30.6017C54.6142 30.6082 54.6208 30.6115 54.624 30.618Z" fill="#D5F379"/>
<path d="M13.5259 22.1175C13.4802 21.2346 12.7815 20.3842 11.8315 20.4266C10.9532 20.4657 10.088 21.1727 10.137 22.1175C10.1827 23.0037 10.2056 23.8932 10.2186 24.7827C10.2513 26.7864 10.2284 28.7934 10.1141 30.7971C10.0488 31.9831 9.94763 33.169 9.79745 34.3452C9.61788 35.6061 9.37954 36.8833 8.9192 38.0757C8.78207 38.3722 8.62862 38.6557 8.44579 38.9294C8.38376 39.001 8.32172 39.0727 8.25316 39.1411C8.13236 39.2649 7.9985 39.3725 7.87117 39.4865C7.84832 39.5028 7.82546 39.5191 7.80261 39.5354C7.70793 39.5973 7.60998 39.6592 7.51204 39.7146C7.3945 39.783 7.27697 39.8416 7.15617 39.9003C6.84274 40.0176 6.51952 40.1055 6.18976 40.1642C5.83063 40.1968 5.46823 40.1935 5.10583 40.1577C4.69772 40.1186 4.18513 40.376 3.90762 40.6529C3.61378 40.9461 3.39177 41.4283 3.41136 41.8486C3.43095 42.2852 3.5746 42.7381 3.90762 43.0443C4.25696 43.3636 4.63569 43.494 5.10583 43.5396C7.71119 43.8002 10.5255 42.4253 11.7205 40.0567C12.4681 38.5742 12.8175 36.9321 13.0558 35.2998C13.5749 31.7387 13.6663 28.1287 13.601 24.535C13.588 23.7303 13.5684 22.9223 13.5259 22.1175Z" fill="#D5F379"/>
<path d="M102.418 24.8316C102.2 23.3133 101.4 21.9645 100.133 21.0913C98.8825 20.2311 97.3056 20.1562 95.856 20.3778C94.4064 20.6026 92.9764 21.2835 91.8108 22.1599C90.6126 23.0592 89.607 24.1116 88.6602 25.2649C87.7852 26.3303 86.9527 27.4316 85.9863 28.4188C85.748 28.6631 85.5031 28.8977 85.2517 29.1225C85.1244 29.2366 84.9938 29.3473 84.8632 29.4548C84.8305 29.4809 84.8011 29.507 84.7685 29.5298C84.824 29.4874 84.873 29.4483 84.8632 29.4581C84.8338 29.4939 84.7848 29.52 84.7424 29.5493C84.7195 29.5656 84.6999 29.5852 84.6771 29.6015C84.6052 29.6601 84.6673 29.608 84.7424 29.5493C84.7326 29.5559 84.7228 29.5624 84.7162 29.5656C84.331 29.8458 83.9196 30.0869 83.4952 30.302C83.3189 30.3899 83.1393 30.4714 82.9597 30.5496C82.2415 30.8363 81.4971 31.0513 80.7364 31.1719C80.3413 31.211 79.943 31.2175 79.5447 31.1784C79.3488 31.1393 79.1594 31.0872 78.9701 31.022C78.8754 30.9764 78.784 30.9243 78.6958 30.8689C78.673 30.8526 78.6501 30.8395 78.6273 30.8232C78.5881 30.7842 78.5522 30.7483 78.5456 30.7418C78.5032 30.6994 78.4608 30.6538 78.4216 30.6082C78.4444 30.6408 78.4673 30.6734 78.4934 30.719C78.4673 30.6766 78.4379 30.6375 78.4085 30.5984C78.4085 30.5984 78.4085 30.5952 78.4053 30.5952C78.3889 30.5756 78.3693 30.5561 78.353 30.5365C78.2779 30.4486 78.2257 30.328 78.3824 30.5528C78.3106 30.4388 78.2453 30.3182 78.1865 30.1977C78.1832 30.1912 78.1833 30.1847 78.18 30.1781C78.18 30.1781 78.18 30.1781 78.18 30.1749C78.2224 30.0478 78.2681 29.9208 78.3041 29.7904C78.7579 28.194 78.8689 26.4639 78.6338 24.8251C78.4151 23.3068 77.6152 21.9579 76.3484 21.0848C75.0979 20.2246 73.521 20.1497 72.0714 20.3712C70.6218 20.5961 69.1918 21.277 68.0262 22.1534C66.828 23.0527 65.8224 24.105 64.8756 25.2584C64.0006 26.3238 63.1681 27.425 62.2017 28.4123C61.9634 28.6566 61.7185 28.8912 61.4671 29.116C61.3398 29.23 61.2092 29.3408 61.0786 29.4483C61.0492 29.4744 61.0166 29.4972 60.9839 29.5233C61.0394 29.4809 61.0884 29.4418 61.0786 29.4516C61.0492 29.4874 61.0002 29.5135 60.9578 29.5428C60.9349 29.5591 60.9153 29.5787 60.8925 29.5949C60.8207 29.6536 60.8827 29.6015 60.9578 29.5428C60.948 29.5493 60.9382 29.5559 60.9317 29.5591C60.5464 29.8393 60.135 30.0804 59.7106 30.2954C59.5343 30.3834 59.3547 30.4649 59.1752 30.5431C58.4569 30.8298 57.7125 31.0448 56.9518 31.1654C56.5567 31.2045 56.1584 31.211 55.7601 31.1719C55.5642 31.1328 55.3749 31.0806 55.1855 31.0155C55.0908 30.9699 54.9994 30.9177 54.9113 30.8624C54.8884 30.8461 54.8655 30.833 54.8427 30.8167C54.8035 30.7776 54.7676 30.7418 54.7611 30.7353C54.7186 30.6929 54.6762 30.6473 54.637 30.6017C54.6599 30.6343 54.6827 30.6669 54.7088 30.7125C54.6827 30.6701 54.6533 30.631 54.6239 30.5919C54.6239 30.5919 54.6239 30.5887 54.6207 30.5887C54.6044 30.5691 54.5848 30.5496 54.5684 30.53C54.4933 30.4421 54.4411 30.3215 54.5978 30.5463C54.5391 30.4551 54.4836 30.3606 54.4346 30.2629C54.3628 30.0641 54.3072 29.8589 54.2648 29.6503C54.2485 29.3734 54.2583 29.0997 54.2844 28.8228C54.3856 28.1907 54.5456 27.5717 54.6599 26.9428C54.8362 25.9817 54.8884 25.1053 54.7317 24.1376C54.7056 23.9682 54.6174 23.7955 54.4999 23.6359C54.3987 23.4795 54.2681 23.3459 54.1081 23.2319C54.0559 23.1928 54.0036 23.1569 53.9546 23.1276C53.5922 22.9158 53.0568 22.8246 52.6487 22.9582C52.5965 22.9745 52.5475 23.0005 52.4952 23.0201C52.1394 23.1406 51.8227 23.372 51.6366 23.7369C51.0032 24.9652 50.3502 26.187 49.5993 27.3469C49.4034 27.6499 49.201 27.9496 48.992 28.2428C48.8941 28.3797 48.7961 28.51 48.6949 28.6436C48.6394 28.712 48.5839 28.7804 48.5284 28.8488C48.0942 29.3734 47.6241 29.8751 47.1017 30.315C47.0527 30.3573 46.9939 30.3997 46.9417 30.4421C46.8013 30.5431 46.6577 30.6408 46.5107 30.7288C46.3475 30.8265 46.1777 30.9177 46.0079 30.9992C45.3419 31.2435 44.6269 31.3706 43.925 31.4716C42.1978 31.6964 40.4544 31.7844 38.7142 31.8365C36.6867 31.8984 34.656 31.8984 32.6285 31.8724C29.442 31.83 26.262 31.6671 23.0755 31.5368C22.7719 31.5237 22.4617 31.5237 22.1548 31.5075V31.5042H22.145C22.1287 31.4358 22.1156 31.3674 22.1026 31.2989C22.0536 30.8852 22.0209 30.4714 22.0014 30.0543C21.9818 29.5819 21.9785 29.1095 21.9818 28.6338C21.985 28.1614 21.9948 27.689 22.0046 27.2165C22.0079 27.0895 22.0079 26.9624 22.0112 26.8353C22.0536 23.6945 22.1254 20.5537 22.1613 17.4129C22.194 14.7184 22.207 12.024 22.2103 9.32626C22.2103 8.44332 21.43 7.59295 20.5158 7.63531C19.5984 7.67766 18.8214 8.37815 18.8214 9.32626C18.8214 12.9688 18.792 16.6114 18.7332 20.2572C18.6973 22.577 18.6418 24.8968 18.6157 27.2165C18.6026 28.497 18.57 29.7872 18.6875 31.0644C18.7822 32.1069 18.9454 33.1007 19.6409 33.925C20.2057 34.5929 21.048 34.7916 21.8773 34.8666C22.6739 34.9382 23.4869 34.9382 24.2868 34.9773C26.7191 35.1011 29.1547 35.1859 31.5903 35.2315C34.4046 35.2836 37.2222 35.2901 40.0332 35.1631C41.238 35.1077 42.4394 35.0295 43.6377 34.8861C44.6628 34.7623 45.7141 34.6352 46.7034 34.3257C48.1073 33.8826 49.3153 32.9801 50.3176 31.9212C50.5984 31.628 50.8628 31.3185 51.1175 31.0057C51.3493 31.7583 51.7378 32.4588 52.2863 33.0453C53.7326 34.5831 55.9332 34.7395 57.8953 34.4235C58.6854 34.2964 59.4559 34.0618 60.1938 33.7588C60.997 33.4297 61.7871 33.0681 62.5021 32.5761C64.2455 31.3739 65.5613 29.7579 66.8803 28.1255C67.5757 27.2654 68.2809 26.4085 69.0873 25.6461C69.293 25.4539 69.502 25.2649 69.7207 25.0857C69.7501 25.0629 69.7795 25.0401 69.8056 25.0173C69.9068 24.9424 70.0113 24.8674 70.1157 24.7958C70.5337 24.5123 70.9777 24.2647 71.438 24.0529C71.9114 23.8672 72.3979 23.7271 72.9007 23.6424C73.1619 23.6196 73.4263 23.6163 73.6875 23.6326C73.8997 23.6717 74.1087 23.7271 74.3111 23.802C74.4058 23.8509 74.4972 23.903 74.5854 23.9617C74.6441 24.0138 74.7062 24.0659 74.7617 24.1246C74.8041 24.1669 74.84 24.2126 74.8792 24.2582C74.889 24.2712 74.8955 24.2842 74.9053 24.2973C74.9837 24.4178 75.0522 24.5449 75.1143 24.6752C75.2057 24.9293 75.2743 25.19 75.3232 25.4572C75.4016 26.2065 75.3722 26.9689 75.2873 27.715C75.1861 28.3634 75.0229 29.002 74.7878 29.6178C74.6866 29.8393 74.5756 30.0543 74.4482 30.2629C74.3829 30.3671 74.3111 30.4681 74.2425 30.5724C74.2034 30.618 74.1609 30.6669 74.1217 30.7125C74.0303 30.8135 73.9324 30.908 73.8344 30.9992C73.9422 30.9112 73.8344 31.022 73.7463 31.0806C73.7398 31.0839 73.7332 31.0872 73.7267 31.0937C73.694 31.1197 73.6614 31.1458 73.632 31.1751C73.6647 31.1458 73.6908 31.123 73.7169 31.1002C73.57 31.2012 73.4133 31.2859 73.2566 31.3641C73.0345 31.4423 72.8093 31.5042 72.5775 31.5466C72.3881 31.5596 72.1987 31.5596 72.0094 31.5466C71.758 31.5009 71.5131 31.4358 71.2748 31.3478C71.1572 31.2892 71.0397 31.224 70.9287 31.1523C70.9091 31.1393 70.8797 31.1197 70.8471 31.0969C70.7948 31.0513 70.7328 30.9992 70.71 30.9764C70.6349 30.9047 70.563 30.8298 70.4945 30.7548C70.4912 30.7516 70.4879 30.7483 70.4847 30.7451C70.3606 30.5496 70.2463 30.3573 70.1517 30.1456C69.9884 29.7839 69.5052 29.4711 69.1396 29.3701C68.7347 29.2594 68.1927 29.3082 67.8336 29.5396C67.4712 29.7709 67.1545 30.1195 67.0566 30.5496C66.9488 31.0187 67.0304 31.4162 67.2263 31.8528C68.5747 34.847 72.7244 35.8212 75.3983 34.039C75.7346 33.8142 76.0415 33.5568 76.3223 33.2799C76.3582 33.3092 76.3908 33.345 76.4268 33.3743C77.1058 33.9152 77.8796 34.3159 78.7448 34.4626C80.3707 34.7395 82.0358 34.4984 83.5768 33.9315C85.1668 33.345 86.5511 32.5305 87.8016 31.3836C89.0912 30.201 90.1261 28.7869 91.2362 27.4479C91.85 26.7083 92.4932 25.9882 93.218 25.3496C93.3029 25.2747 93.391 25.1998 93.4792 25.1248C93.5053 25.102 93.5314 25.0792 93.5608 25.0597C93.7371 24.9293 93.9167 24.799 94.1028 24.6817C94.4782 24.4406 94.8733 24.2354 95.2781 24.0496C95.7352 23.8737 96.2086 23.7401 96.6918 23.6554C96.953 23.6326 97.2174 23.6294 97.4786 23.6456C97.6908 23.6847 97.8998 23.7401 98.1022 23.8151C98.1969 23.8639 98.2883 23.9161 98.3765 23.9747C98.4352 24.0268 98.4973 24.079 98.5528 24.1376C98.5952 24.18 98.6311 24.2256 98.6703 24.2712C98.6801 24.2842 98.6866 24.2973 98.6964 24.3103C98.7748 24.4308 98.8433 24.5579 98.9054 24.6882C98.9968 24.9424 99.0654 25.203 99.1143 25.4669C99.1927 26.2163 99.1633 26.9787 99.0784 27.7248C98.9772 28.3732 98.814 29.0117 98.5789 29.6275C98.4777 29.8491 98.3667 30.0641 98.2393 30.2726C98.174 30.3769 98.1022 30.4779 98.0337 30.5822C97.9945 30.6278 97.952 30.6766 97.9129 30.7222C97.8214 30.8233 97.7235 30.9177 97.6255 31.009C97.7333 30.921 97.6255 31.0318 97.5374 31.0904C97.5309 31.0937 97.5243 31.0969 97.5178 31.1034C97.4852 31.1295 97.4525 31.1556 97.4231 31.1849C97.4558 31.1556 97.4819 31.1328 97.508 31.11C97.3611 31.211 97.2044 31.2957 97.0477 31.3739C96.8257 31.4521 96.6004 31.514 96.3686 31.5563C96.1792 31.5694 95.9899 31.5694 95.8005 31.5563C95.5491 31.5107 95.3042 31.4455 95.0659 31.3576C94.9484 31.2989 94.8308 31.2338 94.7198 31.1621C94.7002 31.1491 94.6708 31.1295 94.6382 31.1067C94.586 31.0611 94.5239 31.009 94.5011 30.9862C94.426 30.9145 94.3541 30.8395 94.2856 30.7646C94.2823 30.7613 94.2791 30.7581 94.2758 30.7548C94.1517 30.5593 94.0375 30.3671 93.9428 30.1553C93.7795 29.7937 93.2963 29.4809 92.9307 29.3799C92.5258 29.2691 91.9839 29.318 91.6247 29.5493C91.2623 29.7807 90.9456 30.1293 90.8477 30.5593C90.7399 31.0285 90.8216 31.426 91.0174 31.8626C92.3658 34.8568 96.5155 35.831 99.1894 34.0488C100.678 33.0551 101.618 31.4944 102.098 29.7969C102.542 28.2037 102.653 26.4737 102.418 24.8316ZM54.859 30.8624C54.921 30.908 54.9831 30.9503 54.9765 30.9536C54.9668 30.9601 54.9145 30.9145 54.859 30.8624ZM78.6534 30.8624C78.7154 30.908 78.7775 30.9503 78.7709 30.9536C78.7611 30.9601 78.7056 30.9145 78.6534 30.8624Z" fill="#D5F379"/>
<path d="M97.5929 31.0286C97.5995 31.0221 97.606 31.0155 97.6125 31.009C97.5864 31.0286 97.5472 31.0644 97.495 31.11C97.4983 31.1068 97.5015 31.1068 97.5048 31.1035C97.5342 31.0775 97.5636 31.0546 97.5929 31.0286Z" fill="#D5F379"/>
<path d="M78.4152 30.618C78.4021 30.5952 78.389 30.5756 78.376 30.5593C78.3858 30.5724 78.3923 30.5887 78.4021 30.6017C78.4086 30.6082 78.4119 30.6115 78.4152 30.618Z" fill="#D5F379"/>
<path d="M84.7655 29.5364C84.7557 29.5429 84.7492 29.5494 84.7394 29.5559C84.7492 29.5494 84.759 29.5429 84.7655 29.5364Z" fill="#D5F379"/>
<path d="M11.4952 17.3087C12.8385 17.3087 13.9275 16.2219 13.9275 14.8814C13.9275 13.5408 12.8385 12.4541 11.4952 12.4541C10.1519 12.4541 9.06287 13.5408 9.06287 14.8814C9.06287 16.2219 10.1519 17.3087 11.4952 17.3087Z" fill="#D5F379"/>
<path d="M32.5601 19.3613C32.7691 19.3613 32.9682 19.332 33.1576 19.2831L33.1674 19.3125C33.1674 19.3125 37.6696 19.0095 40.2881 19.3613V19.3548C40.3403 19.3581 40.3893 19.3613 40.4415 19.3613C41.5091 19.3613 42.3711 18.4979 42.3711 17.4358C42.3711 16.3704 41.5059 15.5103 40.4415 15.5103C40.2783 15.5103 40.1183 15.5331 39.9681 15.5722C39.054 15.6243 35.1263 15.823 32.7201 15.5103V15.5168C32.6679 15.5135 32.6124 15.5103 32.5601 15.5103C31.388 15.5103 30.4347 16.3737 30.4347 17.4358C30.4347 18.5012 31.388 19.3613 32.5601 19.3613Z" fill="#D5F379"/>
</svg>
