<svg width="56" height="56" viewBox="0 0 56 56" fill="none" xmlns="http://www.w3.org/2000/svg">
<path d="M1.06494 16.8442C2.41339 8.75346 8.75346 2.41339 16.8442 1.06494L18.5325 0.783557C24.8009 -0.261185 31.1991 -0.261186 37.4675 0.783556L39.1558 1.06494C47.2465 2.41339 53.5866 8.75346 54.9351 16.8442L55.2164 18.5325C56.2612 24.8009 56.2612 31.1991 55.2164 37.4675L54.9351 39.1558C53.5866 47.2465 47.2465 53.5866 39.1558 54.9351L37.4675 55.2164C31.1991 56.2612 24.8009 56.2612 18.5325 55.2164L16.8442 54.9351C8.75346 53.5866 2.41339 47.2465 1.06494 39.1558L0.783557 37.4675C-0.261185 31.1991 -0.261186 24.8009 0.783556 18.5325L1.06494 16.8442Z" fill="#D1B6F1"/>
</svg>
