<svg width="57" height="56" viewBox="0 0 57 56" fill="none" xmlns="http://www.w3.org/2000/svg">
<path id="Image" d="M1.73096 16.8442C3.07941 8.75346 9.41947 2.41339 17.5102 1.06494L19.1985 0.783557C25.4669 -0.261185 31.8651 -0.261186 38.1335 0.783556L39.8218 1.06494C47.9126 2.41339 54.2526 8.75346 55.6011 16.8442L55.8825 18.5325C56.9272 24.8009 56.9272 31.1991 55.8825 37.4675L55.6011 39.1558C54.2526 47.2465 47.9126 53.5866 39.8219 54.9351L38.1335 55.2164C31.8651 56.2612 25.4669 56.2612 19.1985 55.2164L17.5102 54.9351C9.41948 53.5866 3.07941 47.2465 1.73096 39.1558L1.44957 37.4675C0.404831 31.1991 0.40483 24.8009 1.44957 18.5325L1.73096 16.8442Z" fill="#D5F379"/>
</svg>
