<svg width="64" height="64" viewBox="0 0 64 64" fill="none" xmlns="http://www.w3.org/2000/svg">
<g id="streamline:ecology-science-dna-biology-experiment-lab-science" clip-path="url(#clip0_1642_180826)">
<g id="Group">
<path id="Vector" d="M46.1703 17.829C51.1076 19.9389 56.6604 20.1022 61.7132 18.2862M18.2846 61.7147C20.099 56.6461 19.9358 51.0797 17.8275 46.1262C16.1773 42.1819 15.7308 37.8376 16.5442 33.6402C17.3577 29.4428 19.3947 25.5798 22.3989 22.5376C25.4785 19.4898 29.3915 17.422 33.6446 16.5947" stroke="black" stroke-width="3" stroke-linecap="round" stroke-linejoin="round"/>
<path id="Vector_2" d="M30.1709 47.4061C34.4446 46.572 38.3745 44.4877 41.4623 41.4176M41.4623 41.4176C44.4717 38.3786 46.5123 34.5155 47.326 30.3167C48.1397 26.1179 47.69 21.7721 46.0337 17.829C43.9684 12.8743 43.8541 7.32165 45.7137 2.28613M41.4623 41.4176L22.5823 22.5376M2.28516 45.7147C7.34003 43.8901 12.9017 44.07 17.828 46.2176" stroke="black" stroke-width="3" stroke-linecap="round" stroke-linejoin="round"/>
</g>
</g>
<defs>
<clipPath id="clip0_1642_180826">
<rect width="64" height="64" fill="white"/>
</clipPath>
</defs>
</svg>
