<svg width="33" height="32" viewBox="0 0 33 32" fill="none" xmlns="http://www.w3.org/2000/svg">
<g id="document-text">
<g id="vuesax/bulk/document-text">
<g id="document-text_2">
<path id="Vector" opacity="0.2" d="M28.666 9.33317V22.6665C28.666 26.6665 26.666 29.3332 21.9993 29.3332H11.3327C6.66602 29.3332 4.66602 26.6665 4.66602 22.6665V9.33317C4.66602 5.33317 6.66602 2.6665 11.3327 2.6665H21.9993C26.666 2.6665 28.666 5.33317 28.666 9.33317Z" fill="#090129"/>
<g id="Group">
<path id="Vector_2" d="M25.3333 12.3333H22.6667C20.64 12.3333 19 10.6933 19 8.66667V6C19 5.45333 19.4533 5 20 5C20.5467 5 21 5.45333 21 6V8.66667C21 9.58667 21.7467 10.3333 22.6667 10.3333H25.3333C25.88 10.3333 26.3333 10.7867 26.3333 11.3333C26.3333 11.88 25.88 12.3333 25.3333 12.3333Z" fill="#090129"/>
</g>
<g id="Group_2">
<path id="Vector_3" d="M16.6654 18.3335H11.332C10.7854 18.3335 10.332 17.8802 10.332 17.3335C10.332 16.7868 10.7854 16.3335 11.332 16.3335H16.6654C17.212 16.3335 17.6654 16.7868 17.6654 17.3335C17.6654 17.8802 17.212 18.3335 16.6654 18.3335Z" fill="#090129"/>
</g>
<g id="Group_3">
<path id="Vector_4" d="M21.9987 23.6665H11.332C10.7854 23.6665 10.332 23.2132 10.332 22.6665C10.332 22.1198 10.7854 21.6665 11.332 21.6665H21.9987C22.5454 21.6665 22.9987 22.1198 22.9987 22.6665C22.9987 23.2132 22.5454 23.6665 21.9987 23.6665Z" fill="#090129"/>
</g>
</g>
</g>
</g>
</svg>
