<svg width="40" height="40" viewBox="0 0 40 40" fill="none" xmlns="http://www.w3.org/2000/svg">
<path id="Image" d="M0.760672 12.0315C1.72385 6.25247 6.25247 1.72385 12.0315 0.760673L13.2375 0.559684C17.7149 -0.186561 22.2851 -0.186561 26.7625 0.559683L27.9685 0.760672C33.7475 1.72385 38.2761 6.25247 39.2393 12.0315L39.4403 13.2375C40.1866 17.7149 40.1866 22.2851 39.4403 26.7625L39.2393 27.9685C38.2761 33.7475 33.7475 38.2761 27.9685 39.2393L26.7625 39.4403C22.2851 40.1866 17.7149 40.1866 13.2375 39.4403L12.0315 39.2393C6.25247 38.2761 1.72385 33.7475 0.760673 27.9685L0.559684 26.7625C-0.186561 22.2851 -0.186561 17.7149 0.559683 13.2375L0.760672 12.0315Z" fill="#E0CEF6"/>
</svg>
