<svg width="64" height="64" viewBox="0 0 64 64" fill="none" xmlns="http://www.w3.org/2000/svg">
<g id="Frame">
<path id="Vector" d="M28 8C30.7689 8 33.4757 8.82109 35.778 10.3594C38.0803 11.8978 39.8747 14.0843 40.9343 16.6424C41.9939 19.2006 42.2712 22.0155 41.731 24.7313C41.1908 27.447 39.8574 29.9416 37.8995 31.8995C35.9416 33.8574 33.447 35.1908 30.7313 35.731C28.0155 36.2712 25.2006 35.9939 22.6424 34.9343C20.0843 33.8747 17.8978 32.0803 16.3594 29.778C14.8211 27.4757 14 24.7689 14 22C14 18.287 15.475 14.726 18.1005 12.1005C20.726 9.475 24.287 8 28 8ZM28 4C24.4399 4 20.9598 5.05568 17.9997 7.03355C15.0397 9.01141 12.7326 11.8226 11.3702 15.1117C10.0078 18.4008 9.65134 22.02 10.3459 25.5116C11.0404 29.0033 12.7547 32.2106 15.2721 34.7279C17.7894 37.2453 20.9967 38.9596 24.4884 39.6541C27.98 40.3487 31.5992 39.9922 34.8883 38.6298C38.1774 37.2675 40.9886 34.9603 42.9665 32.0003C44.9443 29.0402 46 25.5601 46 22C46 17.2261 44.1036 12.6477 40.7279 9.27208C37.3523 5.89642 32.7739 4 28 4Z" fill="white"/>
<path id="Vector_2" d="M55.999 22C56.0015 18.3231 55.2774 14.682 53.8685 11.2858C52.4596 7.88965 50.3935 4.8053 47.789 2.20996L44.959 5.03996C49.4526 9.53167 51.9807 15.6226 51.9885 21.9762C51.9963 28.3298 49.4832 34.4269 45.0006 38.9297C40.518 43.4324 34.4322 45.9728 28.0786 45.9935C21.7251 46.0142 15.6228 43.5134 11.111 39.04L11.035 38.964L8.20703 41.792C10.8028 44.3963 13.8875 46.4622 17.2841 47.8707C20.6806 49.2793 24.322 50.0029 27.999 50V56H19.999V60H39.999V56H31.999V49.68C38.6557 48.715 44.7431 45.3876 49.1494 40.3056C53.5558 35.2237 55.987 28.7262 55.999 22Z" fill="white"/>
</g>
</svg>
