<svg width="64" height="64" viewBox="0 0 64 64" fill="none" xmlns="http://www.w3.org/2000/svg">
<g id="iconoir:atom">
<g id="Group">
<path id="Vector" d="M11.744 36.2933C9.37333 35.0533 8 33.5787 8 32C8 27.5813 18.7467 24 32 24C45.2533 24 56 27.5813 56 32C56 33.904 54 35.6533 50.6667 37.0293M32 29.36L32.0267 29.3307" stroke="black" stroke-width="3" stroke-linecap="round" stroke-linejoin="round"/>
<path id="Vector_2" d="M45.021 16.0001C45.0077 13.2721 44.3197 11.3415 42.8957 10.6135C38.9571 8.61078 30.8877 16.5601 24.8691 28.3681C18.8531 40.1788 17.1651 51.3788 21.1037 53.3841C22.5091 54.1014 24.4424 53.5468 26.6237 52.0001" stroke="black" stroke-width="3" stroke-linecap="round" stroke-linejoin="round"/>
<path id="Vector_3" d="M25.5996 11.339C23.8396 10.3096 22.2849 10.0136 21.1036 10.6163C17.1649 12.6216 18.8529 23.8216 24.8716 35.6296C30.8876 47.443 38.9569 55.3896 42.8929 53.3843C46.3943 51.6003 45.4503 42.555 40.9729 32.2723" stroke="black" stroke-width="3" stroke-linecap="round" stroke-linejoin="round"/>
</g>
</g>
</svg>
