<svg width="64" height="64" viewBox="0 0 64 64" fill="none" xmlns="http://www.w3.org/2000/svg">
<g id="simple-line-icons:chemistry" clip-path="url(#clip0_1642_180841)">
<path id="Vector" d="M50.6516 60.6702L40.0015 48.0662V25.9722H41.3335C42.4385 25.9722 43.3335 25.0772 43.3335 23.9722C43.3335 22.8672 42.4385 21.9722 41.3335 21.9722H38.0015C36.8965 21.9722 36.0015 22.8672 36.0015 23.9722V48.8362C36.0014 49.3314 36.1853 49.809 36.5175 50.1762L44.6655 60.0101H19.3355L27.4835 50.1761C27.8158 49.8089 27.9997 49.3313 27.9995 48.8361V23.9723C27.9995 22.8673 27.1045 21.9723 25.9995 21.9723H22.6675C21.5625 21.9723 20.6675 22.8673 20.6675 23.9723C20.6675 25.0773 21.5625 25.9723 22.6675 25.9723H23.9995V48.0663L13.3495 60.6703C13.0905 60.9574 12.9201 61.3135 12.8591 61.6953C12.798 62.0772 12.8489 62.4686 13.0055 62.8222C13.1626 63.1759 13.4189 63.4764 13.7434 63.6873C14.0679 63.8981 14.4465 64.0104 14.8335 64.0103H49.1675C49.5545 64.0104 49.9332 63.8981 50.2577 63.6873C50.5822 63.4764 50.8385 63.1759 50.9956 62.8222C51.3156 62.1003 51.1816 61.2563 50.6516 60.6703V60.6702ZM30.0005 19.9802C32.2045 19.9802 33.9905 18.1932 33.9905 15.9902C33.9905 13.7892 32.2045 12.0023 30.0005 12.0023C27.7955 12.0023 26.0105 13.7892 26.0105 15.9902C26.0105 18.1932 27.7955 19.9802 30.0005 19.9802ZM43.0305 14.0432C46.9285 14.0432 50.0885 10.8972 50.0885 7.01721C50.0885 3.13721 46.9295 -0.00878906 43.0305 -0.00878906C39.1335 -0.00878906 35.9725 3.13721 35.9725 7.01721C35.9725 10.8972 39.1335 14.0432 43.0305 14.0432ZM42.9995 3.97915C44.6655 3.97915 46.0205 5.32815 46.0205 6.98715C46.0205 8.64515 44.6655 9.99515 42.9995 9.99515C41.3335 9.99515 39.9785 8.64515 39.9785 6.98715C39.9795 5.32815 41.3335 3.97915 42.9995 3.97915Z" fill="black"/>
</g>
<defs>
<clipPath id="clip0_1642_180841">
<rect width="64" height="64" fill="white"/>
</clipPath>
</defs>
</svg>
