<svg width="224" height="222" viewBox="0 0 224 222" fill="none" xmlns="http://www.w3.org/2000/svg">
<g id="Sketch-annotation-element-brush-pen-illustrations-book-glasses" opacity="0.12">
<path id="Vector" d="M65.8322 84.8243C67.9602 84.6003 68.0722 84.6563 68.4082 86.5603C72.0482 106.104 101.896 102.688 105.088 82.3603C105.76 78.1603 106.936 76.4803 109.344 76.4803C110.296 76.4803 110.688 76.8163 110.688 77.5443C110.688 91.1523 132.752 100.448 141.6 90.5363C144.736 87.0643 148.32 80.5683 148.656 77.8243L148.936 75.3043L152.184 74.9683C157.84 74.2963 157.784 74.0163 150.056 62.1443C136.616 41.5363 126.2 33.0803 120.432 38.0083C118.696 39.5203 118.864 39.4643 118.472 51.8963C118.472 52.7363 119.032 53.4643 119.816 53.6883C123.232 54.5283 127.152 51.6723 124.24 50.3843C123.008 49.8243 122.952 49.6563 123.288 45.9043C123.792 40.4163 124.184 40.2483 127.88 44.2243C136.392 53.4083 141.936 58.5043 144.288 62.9843C144.904 64.1043 144.848 64.2723 144.288 63.6563C143.616 63.0403 139.864 62.6483 139.864 63.2083C139.864 63.3203 140.648 64.7203 141.6 66.2323C150.728 80.9603 134.208 99.9443 122.504 88.1843C113.712 79.3923 121.44 62.2563 134.208 62.2563C137.736 62.2563 138.352 61.6403 136.056 60.4643C129.672 57.1603 118.528 62.3683 113.6 70.9923L111.976 73.8483L108.056 73.9603C105.816 74.0163 104.136 73.8483 104.136 73.5123C104.136 72.3923 101.336 70.2083 99.9364 70.2083C98.1444 70.2083 98.1443 70.7683 99.8803 73.2883C107.384 84.3203 92.8243 100.672 81.0643 94.4003C66.2803 86.5043 77.3684 62.5923 93.4964 67.6883C98.1444 69.1443 98.8722 69.1443 98.3122 67.6883C94.4482 57.6643 74.5684 64.7203 69.9764 77.7123C68.7444 81.2403 68.6322 81.3523 66.7282 81.3523C65.1042 81.3523 64.8243 81.1843 65.1603 80.3443C65.3843 79.7843 66.7283 74.4643 68.2403 68.4163C72.9443 49.3763 78.7123 37.2243 80.2243 43.3843C81.1763 47.3043 81.2882 55.0323 80.3922 55.0323C78.0402 55.0323 78.0402 58.7283 80.4482 59.2883C85.6002 60.5763 87.3922 46.0163 82.6322 41.7043C77.3122 36.8883 70.9284 41.5923 67.4564 53.0723C66.6164 55.8723 65.0483 60.7443 63.9843 63.9363C58.4963 80.3443 59.0002 85.4403 65.8322 84.8243Z" fill="white"/>
<path id="Vector_2" d="M177.271 135.113C172.175 122.849 170.159 126.601 172.959 133.321C174.527 137.129 174.751 138.081 174.023 137.801C161.983 132.985 137.623 140.657 122.839 154.041L115.783 160.425C115.447 154.769 115.279 151.521 114.999 149.729C114.775 148.161 112.255 147.713 111.975 149.449C111.639 151.521 111.695 155.217 111.695 161.097L109.959 159.137C101.335 149.337 76.1353 146.593 52.3353 152.921C48.3593 153.985 48.3592 155.049 52.2232 141.105C57.4312 122.121 58.9431 112.881 59.9511 109.185C60.3991 107.505 78.7113 107.169 85.5993 108.681C92.0393 110.081 106.319 116.521 108.391 118.873C109.063 119.657 109.623 122.905 110.519 131.137C111.863 143.457 112.031 142.617 113.095 143.065C114.999 143.793 114.047 132.985 113.319 119.377L120.655 114.113C138.015 101.681 153.135 102.857 155.823 102.353L159.407 107.785C167.359 119.769 168.535 124.249 169.599 121.561C169.991 120.553 159.967 100.225 158.399 98.8246C155.431 96.1926 130.679 95.2966 113.767 111.929C109.343 116.297 109.847 116.129 107.495 114.337C92.3193 102.745 58.3272 98.4887 56.4232 107.953C55.2472 113.721 47.1831 136.849 44.2711 152.081C43.5431 156.001 43.4872 157.009 44.1032 158.241C44.8312 159.697 45.2233 159.809 47.5753 159.361C48.5833 159.193 48.7512 159.585 49.1432 163.617C49.5912 167.873 50.7111 170.449 51.8311 169.777C52.6151 169.329 52.3913 170.337 51.4953 171.513C49.3673 174.313 51.7191 179.969 54.9111 179.745C56.3111 179.633 56.7032 179.913 57.2072 181.313C58.0472 183.609 59.1112 183.833 61.4632 182.209C63.9272 180.529 68.3512 177.785 75.7432 176.049C83.1352 174.313 106.375 176.049 108.671 177.113C110.071 177.785 110.799 177.897 111.079 177.449C111.303 177.113 113.207 176.665 115.391 176.497C122.727 175.881 134.431 174.537 139.695 173.641C147.535 172.297 162.263 172.745 167.135 174.481C172.567 176.385 174.247 174.425 170.607 170.449C169.319 169.049 169.263 168.881 170.271 169.161C178.167 171.233 179.623 168.489 174.975 160.201C172.903 156.505 172.903 156.673 175.871 156.673C179.399 156.673 179.231 155.329 175.087 149.057C171.335 143.401 171.335 143.345 175.815 144.857C181.191 146.649 181.415 145.081 177.271 135.113ZM73.1111 167.873C66.3351 168.489 60.0632 171.793 59.4472 172.017C58.4952 172.297 57.8791 171.681 58.2711 170.225C58.4951 169.329 58.7751 168.265 58.8311 167.817C59.2791 164.905 78.2072 162.049 87.1672 163.561C95.9592 165.017 97.2472 165.633 104.807 168.321C91.9272 167.425 80.3351 167.201 73.1111 167.873ZM110.351 164.793C82.1271 156.785 71.0393 156.505 55.9753 163.281C53.9593 164.233 52.2232 164.905 52.1672 164.793C52.0552 164.625 51.7192 161.489 51.3272 158.297C64.9352 154.993 75.7992 151.969 89.1272 153.705C93.1032 154.209 98.4792 156.225 102.567 158.689C109.567 162.945 112.815 165.521 110.351 164.793ZM126.759 157.569C142.271 144.185 153.191 140.097 165.679 143.065C166.967 143.345 172.063 149.729 171.503 150.289C171.391 150.401 170.215 150.233 168.871 149.897C158.399 147.601 152.463 148.497 138.407 154.601C134.711 156.225 130.847 157.849 129.839 158.241C125.695 159.865 115.615 167.201 126.759 157.569ZM168.143 161.321C161.367 160.033 153.583 160.257 146.583 161.881C141.319 163.113 125.303 166.417 124.799 165.969C124.519 165.745 132.471 161.713 136.447 159.585C144.511 155.273 154.199 153.817 165.679 155.161C168.143 155.441 168.479 155.721 170.551 158.633C173.295 162.497 173.407 162.329 168.143 161.321Z" fill="white"/>
</g>
</svg>
