<svg width="217" height="218" viewBox="0 0 217 218" fill="none" xmlns="http://www.w3.org/2000/svg">
<g id="Sketch-annotation-element-brush-pen-illustrations-sun-weather" opacity="0.12">
<path id="Vector" fill-rule="evenodd" clip-rule="evenodd" d="M118.799 36.8225C118.039 37.095 115.272 39.5474 112.668 42.2179C105.074 49.9569 97.7495 52.7364 92.9213 49.7934C89.395 47.6679 85.1095 43.7439 84.1872 41.8364C81.963 37.0949 79.9554 38.73 78.4364 46.687C75.4527 62.165 66.339 69.5225 52.7222 67.615C44.9645 66.525 44.3676 66.9065 48.0024 71.1575C59.2864 84.401 53.536 106.473 36.9898 113.449C34.0603 114.703 34.494 115.248 41.1125 118.572C51.6913 123.859 57.713 138.41 54.4038 150.455C53.3188 154.324 53.3187 156.123 54.2952 156.777C55.3802 157.485 57.5501 157.376 58.5266 156.504C60.9678 154.379 71.1672 153.888 74.4222 155.741C78.3825 157.976 86.2486 170.511 86.2486 174.598C86.2486 176.615 88.5814 180.212 90.3174 180.975C93.3554 182.283 93.4096 182.228 98.4549 175.47C110.336 159.611 119.504 158.139 130.083 170.293C135.996 177.051 138.762 177.051 139.739 170.238C142.343 152.035 153.681 140.754 165.725 144.405C172.886 146.585 173.049 145.822 168.98 132.143C167.298 126.638 167.732 120.807 170.065 116.501C172.994 111.106 177.606 104.348 179.83 102.222C182.814 99.334 181.783 97.3175 177.334 97.3175C172.777 97.3175 165.887 90.2325 163.609 83.202C161.981 78.3515 163.717 67.2334 167.135 60.0939C168.383 57.4779 167.732 55.734 165.236 55.1345C163.826 54.753 161.71 55.5704 161.71 56.3879C161.71 58.0774 144.947 59.331 139.468 58.0775C130.788 56.061 121.728 46.0329 122.921 39.7109C123.247 37.3129 121.348 35.8415 118.799 36.8225ZM121.565 49.6845C125.959 59.113 139.522 63.6909 156.502 61.5654L159.486 61.1839L158.401 63.6909C152.217 78.1879 158.075 93.9929 171.638 99.1704C174.676 100.315 174.784 99.7699 170.661 104.784C159.377 118.627 158.076 124.785 164.097 136.666C165.454 139.282 166.322 141.408 166.105 141.408C165.888 141.408 163.826 141.081 161.493 140.645C155.146 139.5 151.945 140.372 146.14 144.678C137.949 150.782 134.477 157.104 134.477 166.096V168.167L131.059 165.388C118.527 155.142 104.476 157.485 94.0603 171.546L92.4874 173.617L90.2088 168.821C84.2413 156.068 75.4529 150.237 64.2774 151.599L60.046 152.09L60.3713 150.4C62.8125 136.83 56.6821 122.769 45.7778 116.992L42.5228 115.248L47.1341 110.452C59.4488 97.6445 61.9988 85.2729 54.675 73.4464L53.59 71.7025L56.5198 72.0295C68.6175 73.283 81.9629 63.0915 83.2649 51.5375L83.6447 48.322L86.14 50.1204C96.122 57.2599 105.833 56.388 115.326 47.45C118.853 44.18 119.07 44.0164 119.558 45.1064C119.775 45.8149 120.697 47.8315 121.565 49.6845ZM98.8888 65.6529C51.0403 78.6239 60.4796 155.196 109.522 151.708C152.65 148.656 169.305 86.7989 131.276 69.9039C125.146 67.1789 123.844 70.2854 129.92 74.3729C168.6 100.369 130.462 167.023 90.6427 142.988C60.9679 125.112 70.5703 82.3299 101.059 70.4489C105.019 68.9229 111.258 67.7239 115.869 67.9964C120.697 68.2689 122.271 65.326 116.195 64.3995C111.475 63.6365 103.392 64.3994 98.8888 65.6529Z" fill="white"/>
</g>
</svg>
