<svg width="265" height="304" viewBox="0 0 265 304" fill="none" xmlns="http://www.w3.org/2000/svg">
<g id="Sketch-annotation-element-brush-pen-illustrations-achievement-cup" opacity="0.12">
<path id="Vector" d="M39.8021 131.583C37.4954 126.505 34.6982 125.373 34.1179 129.209C33.4339 134.043 35.8719 138.832 38.7314 138.195C41.4044 137.599 41.7014 135.712 39.8021 131.583Z" fill="white"/>
<path id="Vector_2" d="M188.36 205.829C183.67 204.988 165.139 202.942 158.122 202.491C149.778 201.945 150.069 202.075 148.908 198.042C142.555 174.812 140.311 170.305 138.439 173.323C137.955 174.081 140.669 185.962 143.314 194.607C146.615 205.316 147.223 205.701 161.333 206.652C170.34 207.245 173.939 207.873 177.509 208.378C155.753 213.228 112.439 222.95 112.384 222.702C112.357 222.578 116.791 219.054 122.171 214.798C134.162 205.361 133.326 207.759 129.659 193.359C124.335 172.696 124.424 172.806 114.637 171.346C107.758 170.344 99.622 167.801 95.0083 165.253C91.3684 163.268 90.9539 163.165 90.4704 164.509C88.9715 168.615 78.6111 171.9 72.2568 170.325C45.4791 163.484 42.7799 118.89 69.2539 120.271C73.0181 120.472 73.9645 120.326 74.745 119.437C78.6406 115.252 112.091 105.778 131.845 101.309C133.585 100.921 150.162 99.1765 137.909 97.4861C125.58 95.7477 89.9682 103.427 75.3046 113.46C73.9991 114.336 72.8045 108.685 73.9165 106.941C76.0716 103.729 97.2274 95.3058 119.481 91.5148C130.857 89.5639 141.653 89.6932 147.496 90.1463C149.361 90.3158 150.963 91.6494 151.377 93.5079L151.75 95.1805C152.828 100.013 155.604 103.686 157.78 103.201C158.774 102.979 159.03 100.906 158.243 99.7159C156.786 97.5696 165.537 89.1155 170.323 88.0483C187.542 84.2094 192.625 112.275 186.228 130.414C180.35 147.071 174.659 150.811 156.957 149.556C147.273 148.853 137.548 150.306 111.689 159.583C104.326 162.265 107.275 164.664 116.993 162.302C140.442 156.554 153.406 154.119 152.501 155.621C151.465 157.413 145.995 162.144 142.147 164.498C136.069 168.259 140.697 172.625 145.711 168.776C149.434 165.865 155.492 159.962 157.916 156.495C160.002 153.559 160.223 153.379 161.708 153.894C178.526 159.964 192.098 146.208 194.365 120.666C196.79 93.2028 175.276 74.2633 158.581 89.2356L155.639 91.8425L154.499 89.9505C152.621 86.7927 149.395 84.9106 145.3 84.3931C125.615 82.1487 85.0785 90.8611 69.6413 103.862C67.5554 105.628 66.6158 108.439 67.2097 111.102C67.2373 111.226 68.4528 116.678 68.4114 116.492L66.5742 116.446C40.5146 115.753 34.2902 153.688 57.7869 170.105C67.2215 176.715 79.2464 177.091 89.4619 171.106L92.9776 169.022L95.4846 170.609C99.2212 173.028 108.083 175.604 114.54 176.18L120.322 176.647C122.248 182.07 122.131 181.251 127.186 205.681C123.436 208.468 102.797 223.604 98.4668 226.13C93.8391 228.788 96.1182 231.986 99.8756 231.279C104.952 230.342 121.204 226.849 140.039 222.649C166.831 216.676 191.116 212.042 191.054 212.056C193.734 211.784 193.803 206.826 188.36 205.829Z" fill="white"/>
<path id="Vector_3" d="M95.5193 186.274C94.1104 183.466 90.1872 185.186 91.3613 188.111C92.5492 191.098 90.8845 196.216 87.0236 194.996C83.1143 193.851 81.8227 187.766 88.7711 186.152C89.517 185.986 90.5049 185.441 90.9331 185.02C92.9983 182.869 86.423 182.644 83.3701 184.755C79.1361 187.715 80.0128 196.039 84.6611 197.278C91.4436 199.018 98.3648 192.012 95.5193 186.274Z" fill="white"/>
<path id="Vector_4" d="M73.8054 126.929C63.2656 122.386 51.4477 129.963 55.246 144.658C59.1618 159.588 71.3313 166.759 84.7585 162.01C89.5933 160.281 89.6901 160.13 87.045 155.582C74.4682 133.414 77.8527 128.693 73.8054 126.929ZM78.7842 159.505C70.1092 158.643 64.867 153.568 62.1806 143.567C59.2317 132.389 60.8202 128.394 67.4646 130.099L70.78 130.92L71.9953 135.787C73.3351 141.211 77.3616 150.783 80.5179 155.867C82.9766 159.871 82.9905 159.933 78.7842 159.505Z" fill="white"/>
<path id="Vector_5" d="M32.5714 115.248C36.0524 116.813 37.2474 114.27 35.9076 108.261C34.0292 99.8358 30.7485 95.9501 28.7454 99.8433C27.7024 101.897 30.8309 114.465 32.5714 115.248Z" fill="white"/>
<path id="Vector_6" d="M159.161 77.7901C163.533 76.035 164.921 69.0922 161.268 67.0455C159.03 65.7886 158.304 66.3406 159.264 68.5977C160.342 71.0888 158.663 75.5598 155.348 74.7382C151.971 73.9305 150.355 67.8528 157.49 66.197C158.982 65.8644 159.347 64.8724 158.153 64.4885C154.34 63.1925 148.987 65.8167 148.048 70.3831C146.956 75.4387 152.336 80.5471 159.161 77.7901Z" fill="white"/>
<path id="Vector_7" d="M36.7979 120.743C37.2122 122.601 43.9463 120.905 51.1365 117.156C57.7465 113.731 50.5359 112.998 43.325 116.361C38.3658 118.702 36.6045 119.875 36.7979 120.743Z" fill="white"/>
<path id="Vector_8" d="M18.1009 123.221C15.787 124.257 15.7663 126.212 18.1284 126.271C20.9533 126.357 31.9146 123.132 32.8264 121.954C34.8432 119.293 24.6072 120.21 18.1009 123.221Z" fill="white"/>
<path id="Vector_9" d="M186.434 171.142C189.335 171.275 189.928 169.842 188.92 165.32C187.608 159.435 187 158.465 184.887 158.936C183.643 159.213 183.167 159.71 183.077 160.77C182.987 164.757 184.983 171.075 186.434 171.142Z" fill="white"/>
<path id="Vector_10" d="M165.825 143.09C181.814 147.199 192.3 111.696 178.825 98.9628C175.192 95.5458 169.48 94.8033 165.646 97.2187C162.22 99.4132 156.874 108.214 158.034 109.906C159.326 111.894 160.603 126.111 160.016 131.964C159.111 140.49 159.657 141.474 165.825 143.09ZM164.512 136.034C165.093 131.028 164.416 119.798 163.187 114.285C161.143 105.116 168.706 95.4309 174.798 99.3402C180.572 102.995 180.191 123.825 174.216 134.196C170.687 140.315 163.87 141.64 164.512 136.034Z" fill="white"/>
<path id="Vector_11" d="M187.711 185.943C186.813 191.866 190.301 197.266 193.975 195.601C196.773 194.393 196.379 189.993 193.029 185.213C191.379 182.784 188.091 183.257 187.711 185.943Z" fill="white"/>
<path id="Vector_12" d="M205.697 173.543C202.9 173.582 193.347 175.516 192.153 176.303C187.815 179.091 199.239 179.405 205.213 176.643C207.637 175.517 207.97 173.492 205.697 173.543Z" fill="white"/>
<path id="Vector_13" d="M174.106 179.937C173.084 180.621 173.525 182.018 174.803 182.188C178.049 182.7 186.918 179.747 186.6 178.322C186.359 176.946 176.717 178.185 174.106 179.937Z" fill="white"/>
<path id="Vector_14" d="M135.035 110.352C133.64 108.777 118.597 110.96 107.18 114.481C97.6482 117.387 88.8625 121.296 84.7874 124.091C80.9471 126.768 82.5356 129.21 86.5969 127.524C92.2675 125.154 114.425 118.003 121.014 116.534C133.619 113.659 136.714 112.319 135.035 110.352Z" fill="white"/>
</g>
</svg>
