<svg width="33" height="32" viewBox="0 0 33 32" fill="none" xmlns="http://www.w3.org/2000/svg">
<path opacity="0.2" d="M14.6667 3.26667C15.5867 2.48 17.0934 2.48 18.0267 3.26667L20.1334 5.08C20.5334 5.42667 21.28 5.70667 21.8134 5.70667H24.08C25.4934 5.70667 26.6534 6.86667 26.6534 8.28V10.5467C26.6534 11.0667 26.9334 11.8267 27.28 12.2267L29.0934 14.3333C29.88 15.2533 29.88 16.76 29.0934 17.6933L27.28 19.8C26.9334 20.2 26.6534 20.9467 26.6534 21.48V23.7467C26.6534 25.16 25.4934 26.32 24.08 26.32H21.8134C21.2934 26.32 20.5334 26.6 20.1334 26.9467L18.0267 28.76C17.1067 29.5467 15.6 29.5467 14.6667 28.76L12.56 26.9467C12.16 26.6 11.4134 26.32 10.88 26.32H8.57338C7.16005 26.32 6.00005 25.16 6.00005 23.7467V21.4667C6.00005 20.9467 5.72005 20.2 5.38671 19.8L3.58671 17.68C2.81338 16.76 2.81338 15.2667 3.58671 14.3467L5.38671 12.2267C5.72005 11.8267 6.00005 11.08 6.00005 10.56V8.26667C6.00005 6.85333 7.16005 5.69333 8.57338 5.69333H10.88C11.4 5.69333 12.16 5.41333 12.56 5.06667L14.6667 3.26667Z" fill="#090129"/>
<path d="M14.72 20.2267C14.4534 20.2267 14.2 20.12 14.0134 19.9333L10.7867 16.7067C10.4 16.32 10.4 15.68 10.7867 15.2933C11.1734 14.9067 11.8134 14.9067 12.2 15.2933L14.72 17.8133L20.4534 12.08C20.84 11.6933 21.48 11.6933 21.8667 12.08C22.2534 12.4667 22.2534 13.1067 21.8667 13.4933L15.4267 19.9333C15.24 20.12 14.9867 20.2267 14.72 20.2267Z" fill="#090129"/>
</svg>
