<svg width="56" height="56" viewBox="0 0 56 56" fill="none" xmlns="http://www.w3.org/2000/svg">
<path id="Image" d="M1.55814 16.9264C2.87147 9.0464 9.04639 2.87147 16.9264 1.55814L18.6147 1.27675C24.8287 0.241083 31.1713 0.241082 37.3853 1.27675L39.0736 1.55814C46.9536 2.87147 53.1285 9.04639 54.4419 16.9264L54.7232 18.6147C55.7589 24.8287 55.7589 31.1713 54.7232 37.3853L54.4419 39.0736C53.1285 46.9536 46.9536 53.1285 39.0736 54.4419L37.3853 54.7232C31.1713 55.7589 24.8287 55.7589 18.6147 54.7232L16.9264 54.4419C9.0464 53.1285 2.87147 46.9536 1.55814 39.0736L1.27675 37.3853C0.241083 31.1713 0.241082 24.8287 1.27675 18.6147L1.55814 16.9264Z" fill="white" stroke="#DCDFEA"/>
</svg>
